<?xml version="1.0" encoding="UTF-8"?>
<svg width="201px" height="56px" viewBox="0 0 201 56" version="1.1" xmlns="http://www.w3.org/2000/svg" xmlns:xlink="http://www.w3.org/1999/xlink">
    <!-- Generator: Sketch 59.1 (86144) - https://sketch.com -->
    <title>desktop.logo-compact</title>
    <desc>Created with Sketch.</desc>
    <defs>
        <polygon id="path-1" points="0 0.5208 44.7998 0.5208 44.7998 56.5208 0 56.5208"></polygon>
        <polygon id="path-3" points="0.0003 0.0003 44.7993 0.0003 44.7993 56 0.0003 56"></polygon>
    </defs>
    <g id="Desktop" stroke="none" stroke-width="1" fill="none" fill-rule="evenodd">
        <g id="&gt;-Builders" transform="translate(-157.000000, -63.000000)">
            <g id="desktop.logo-compact" transform="translate(157.000000, 63.000000)">
                <g id="Logo" transform="translate(0.000000, -1.000000)">
                    <g id="Group-3" transform="translate(0.000000, 0.480000)">
                        <mask id="mask-2" fill="white">
                            <use xlink:href="#path-1"></use>
                        </mask>
                        <g id="Clip-2"></g>
                        <path d="M32.3998,13.7198 C32.3998,12.1198 31.5998,11.3208 29.9998,11.3208 L12.3998,11.3208 L12.3998,27.0798 L29.9998,27.0798 C31.5998,27.0798 32.3998,26.2808 32.3998,24.6808 L32.3998,13.7198 Z M32.2398,37.8798 L12.3998,37.8798 L12.3998,56.5208 L-0.0002,56.5208 L-0.0002,0.5208 L32.2398,0.5208 C36.0258,0.5208 39.0658,1.6678 41.3598,3.9598 C43.6518,6.2538 44.7998,9.2938 44.7998,13.0798 L44.7998,25.3208 C44.7998,29.1078 43.6518,32.1478 41.3598,34.4408 C39.0658,36.7338 36.0258,37.8798 32.2398,37.8798 L32.2398,37.8798 Z" id="Fill-1" fill="#000000" mask="url(#mask-2)"></path>
                    </g>
                    <g id="Group-37" transform="translate(103.999400, 1.000000)">
                        <mask id="mask-4" fill="white">
                            <use xlink:href="#path-3"></use>
                        </mask>
                        <g id="Clip-36"></g>
                        <path d="M26.7993,43.2003 L26.7993,33.3603 L14.7993,33.3603 C13.1993,33.3603 12.4003,34.1603 12.4003,35.7603 L12.4003,42.8003 C12.4003,44.3993 13.1993,45.2003 14.7993,45.2003 L24.4003,45.2003 C25.8403,45.2003 26.6403,44.5343 26.7993,43.2003 L26.7993,43.2003 Z M39.1993,56.0003 L30.0793,56.0003 L28.3203,51.8403 C27.2523,53.1743 26.0123,54.2003 24.5993,54.9203 C23.1863,55.6393 21.4663,56.0003 19.4393,56.0003 L12.4803,56.0003 C8.7463,56.0003 5.7323,54.8533 3.4393,52.5593 C1.1463,50.2673 0.0003,47.2273 0.0003,43.4403 L0.0003,38.7203 C0.0003,36.3203 0.4923,34.2003 1.4803,32.3603 C2.4663,30.5203 3.8403,29.0673 5.5993,28.0003 C3.8403,26.9333 2.4663,25.4793 1.4803,23.6393 C0.4923,21.8003 0.0003,19.6533 0.0003,17.2003 L0.0003,12.5593 C0.0003,8.7733 1.1463,5.7333 3.4393,3.4403 C5.7323,1.1473 8.7723,0.0003 12.5603,0.0003 L26.6403,0.0003 C30.4253,0.0003 33.4663,1.1473 35.7593,3.4403 C38.0523,5.7333 39.1993,8.7733 39.1993,12.5593 L39.1993,17.6003 L26.7993,17.6003 L26.7993,13.2003 C26.7993,11.6003 26.0003,10.8003 24.4003,10.8003 L14.7993,10.8003 C13.1993,10.8003 12.4003,11.6003 12.4003,13.2003 L12.4003,20.1603 C12.4003,21.7603 13.1993,22.5593 14.7993,22.5593 L44.7993,22.5593 L44.7993,33.3603 L39.1993,33.3603 L39.1993,56.0003 Z" id="Fill-35" fill="#CCCCCC" mask="url(#mask-4)"></path>
                    </g>
                    <polygon id="Fill-38" fill="#CCCCCC" points="178.32 42.601 168.4 25.4 168.4 57 156 57 156 1 168 1 178.32 20.201 188.799 1 200.799 1 200.799 57 188.4 57 188.4 25.4"></polygon>
                    <path d="M84.4,36.76 C84.4,35.16 83.6,34.361 82,34.361 L64.4,34.361 L64.4,46.2 L82,46.2 C83.6,46.2 84.4,45.401 84.4,43.801 L84.4,36.76 Z M84.4,14.2 C84.4,12.601 83.6,11.801 82,11.801 L64.4,11.801 L64.4,23.561 L82,23.561 C83.6,23.561 84.4,22.76 84.4,21.16 L84.4,14.2 Z M96.8,18.2 C96.8,20.655 96.293,22.801 95.28,24.641 C94.267,26.481 92.879,27.934 91.12,29 C92.879,30.069 94.267,31.521 95.28,33.361 C96.293,35.2 96.8,37.348 96.8,39.801 L96.8,44.441 C96.8,48.228 95.652,51.268 93.36,53.561 C91.066,55.854 88.026,57 84.24,57 L52,57 L52,1 L84.24,1 C88.026,1 91.066,2.149 93.36,4.441 C95.652,6.735 96.8,9.774 96.8,13.561 L96.8,18.2 Z" id="Fill-17" fill="#CCCCCC"></path>
                </g>
            </g>
        </g>
    </g>
</svg>