<?xml version="1.0" standalone="no"?>
<!DOCTYPE svg PUBLIC "-//W3C//DTD SVG 1.1//EN" "http://www.w3.org/Graphics/SVG/1.1/DTD/svg11.dtd" >
<svg xmlns="http://www.w3.org/2000/svg" xmlns:xlink="http://www.w3.org/1999/xlink" version="1.1">
<metadata></metadata>
<defs>
<font id="pepper_monobold" horiz-adv-x="1786" >
<font-face units-per-em="2048" ascent="1993" descent="-55" />
<missing-glyph horiz-adv-x="500" />
<glyph horiz-adv-x="0" />
<glyph unicode="&#xd;" />
<glyph unicode=" " />
<glyph unicode="!" d="M693 0v399h398v-399h-398zM693 605v1319h398v-1319h-398z" />
<glyph unicode="&#x22;" d="M517 1336v588h316v-588h-316zM957 1336v588h316v-588h-316z" />
<glyph unicode="&#x26;" d="M124 432v162q0 122 50 217t142 151q-92 56 -142 151t-50 220v160q0 196 117.5 313.5t313.5 117.5h484q196 0 314 -117.5t118 -313.5v-173h-426v151q0 82 -83 82h-330q-82 0 -82 -82v-239q0 -83 82 -83h1031v-371h-192v-778h-314l-60 143q-58 -71 -131 -107t-174 -36h-239 q-193 0 -311 118.5t-118 313.5zM550 454q0 -83 82 -83h330q76 0 83 69v338h-413q-82 0 -82 -83v-241z" />
<glyph unicode="'" d="M734 1336v588h316v-588h-316z" />
<glyph unicode="(" d="M632 1779q0 151 77 291t199 224t249 84h165v-371q-31 0 -64.5 -7t-73 -28.5t-70.5 -54.5t-51.5 -90t-20.5 -131l3 -1471q0 -73 20.5 -130t51 -89t70 -53t73 -28t65.5 -7v-372h-168q-94 0 -189 50.5t-168 132.5t-119 193t-46 224z" />
<glyph unicode=")" d="M462 -82q32 0 65.5 7t73 28t70 53t51 89t20.5 130l3 1471q0 74 -20.5 131t-51.5 90t-70.5 54.5t-73 28.5t-64.5 7v371h165q127 0 249 -82t199 -220t77 -289l-3 -1650q0 -151 -77 -289t-198 -220t-247 -82h-168v372z" />
<glyph unicode="," d="M624 -184v588h454l-127 -588h-327z" />
<glyph unicode="-" horiz-adv-x="1649" d="M344 652v184h962v-184h-962z" />
<glyph unicode="." d="M693 0v399h401v-399h-401z" />
<glyph unicode="/" d="M247 -192l872 2309h393l-871 -2309h-394z" />
<glyph unicode="0" d="M124 432v1061q0 195 118 313t311 118h679q196 0 313.5 -117.5t117.5 -313.5v-1061q0 -196 -117.5 -314t-313.5 -118h-679q-193 0 -311 118.5t-118 313.5zM550 657l517 896h-435q-82 0 -82 -82v-814zM720 371h435q82 0 82 83v816z" />
<glyph unicode="1" d="M124 0v371h555v1122l-426 -305v431l426 305h423v-1553h561v-371h-1539z" />
<glyph unicode="2" horiz-adv-x="1781" d="M124 0v371l1083 872q25 22 25 66v162q0 82 -83 82h-517q-82 0 -82 -82v-289h-426v311q0 196 117.5 313.5t313.5 117.5h674q193 0 311 -118t118 -313v-206q0 -208 -160 -350l-728 -566h888v-371h-1534z" />
<glyph unicode="3" d="M124 432v255h426v-233q0 -83 82 -83h523q82 0 82 83v241q0 83 -82 83h-352v371h352q82 0 82 83v239q0 82 -82 82h-523q-82 0 -82 -82v-234h-426v256q0 196 117.5 313.5t313.5 117.5h677q196 0 313.5 -117.5t117.5 -313.5v-160q0 -125 -50 -220t-142 -151q92 -56 142 -151 t50 -217v-162q0 -196 -117.5 -314t-313.5 -118h-591q-97 0 -190 31.5t-165 89.5q-76 57 -119 137t-43 174z" />
<glyph unicode="4" d="M124 294v371l937 1259h432v-1259h170v-371h-170v-294h-426v294h-943zM583 665h484v666z" />
<glyph unicode="5" d="M124 432v145h426v-123q0 -83 82 -83h523q82 0 82 83v351q0 83 -82 83h-523q-77 0 -82 -72v-79h-426v1187h1484v-371h-1058v-374q106 80 264 80h418q196 0 313.5 -118t117.5 -314v-395q0 -196 -117.5 -314t-313.5 -118h-677q-196 0 -313.5 118t-117.5 314z" />
<glyph unicode="6" d="M124 432v1061q0 195 118 313t311 118h679q196 0 313.5 -117.5t117.5 -313.5v-173h-426v151q0 82 -82 82h-523q-82 0 -82 -82v-402q106 80 264 80h418q196 0 313.5 -118t117.5 -314v-285q0 -196 -117.5 -314t-313.5 -118h-679q-193 0 -311 118.5t-118 313.5zM550 454 q0 -83 82 -83h523q82 0 82 83v241q0 83 -82 83h-523q-82 0 -82 -83v-241z" />
<glyph unicode="7" d="M124 1553v371h1539v-371l-907 -1553h-473l907 1553h-1066z" />
<glyph unicode="8" d="M124 432v162q0 122 50 217t142 151q-92 56 -142 151t-50 220v160q0 196 117.5 313.5t313.5 117.5h677q196 0 313.5 -117.5t117.5 -313.5v-160q0 -125 -50 -220t-142 -151q92 -56 142 -151t50 -217v-162q0 -196 -117.5 -314t-313.5 -118h-677q-196 0 -313.5 118 t-117.5 314zM550 454q0 -83 82 -83h523q82 0 82 83v241q0 83 -82 83h-523q-82 0 -82 -83v-241zM550 1232q0 -83 82 -83h523q82 0 82 83v239q0 82 -82 82h-523q-82 0 -82 -82v-239z" />
<glyph unicode="9" d="M124 432v118h426v-96q0 -83 82 -83h523q82 0 82 83v343q-110 -77 -264 -77h-418q-196 0 -313.5 118t-117.5 314v341q0 196 117.5 313.5t313.5 117.5h679q193 0 311 -118t118 -313v-1061q0 -195 -118 -313.5t-311 -118.5h-679q-196 0 -313.5 118t-117.5 314zM550 1174 q0 -83 82 -83h523q75 0 82 69v311q0 82 -82 82h-523q-82 0 -82 -82v-297z" />
<glyph unicode=":" horiz-adv-x="1649" d="M624 0v399h401v-399h-401zM624 976v398h401v-398h-401z" />
<glyph unicode=";" horiz-adv-x="1649" d="M624 -184v588h454l-127 -588h-327zM624 976v398h401v-398h-401z" />
<glyph unicode="?" d="M148 1320v173q0 195 118 313t311 118h679q196 0 314 -117.5t118 -313.5v-270q0 -196 -118 -313.5t-314 -117.5h-82q-83 0 -83 -83v-104h-398v99q0 195 118 313t311 118h85q82 0 82 83v280q0 83 -82 83h-577q-83 0 -83 -83v-178h-399zM693 0v399h398v-399h-398z" />
<glyph unicode="A" d="M124 0l464 1924h608l467 -1924h-434l-94 407h-483l-94 -407h-434zM737 778h308l-154 668z" />
<glyph unicode="B" d="M124 0v1924h1108q196 0 313.5 -117.5t117.5 -313.5v-160q0 -124 -51.5 -219t-143.5 -152q92 -57 143.5 -152t51.5 -219v-159q0 -196 -117.5 -314t-313.5 -118h-1108zM550 371h605q82 0 82 83v241q0 83 -82 83h-605v-407zM550 1149h605q82 0 82 83v239q0 82 -82 82h-605 v-404z" />
<glyph unicode="C" d="M124 432v1061q0 195 118 313t311 118h679q196 0 313.5 -117.5t117.5 -313.5v-256h-426v234q0 82 -82 82h-523q-82 0 -82 -82v-1017q0 -83 82 -83h523q82 0 82 83v233h426v-255q0 -196 -117.5 -314t-313.5 -118h-679q-193 0 -311 118.5t-118 313.5z" />
<glyph unicode="D" d="M124 0v1924h1108q196 0 313.5 -117.5t117.5 -313.5v-1061q0 -196 -117.5 -314t-313.5 -118h-1108zM550 371h605q82 0 82 83v1017q0 82 -82 82h-605v-1182z" />
<glyph unicode="E" d="M124 0v1924h1539v-371h-1113v-404h921v-371h-921v-407h1113v-371h-1539z" />
<glyph unicode="F" d="M124 0v1924h1539v-371h-1113v-486h976v-372h-976v-695h-426z" />
<glyph unicode="G" d="M124 432v1061q0 195 118 313t311 118h679q196 0 313.5 -117.5t117.5 -313.5v-201h-426v179q0 82 -82 82h-523q-82 0 -82 -82v-1017q0 -83 82 -83h523q82 0 82 83v241h-407v372h833v-1067h-313l-61 143q-56 -69 -141.5 -106t-190.5 -37h-404q-193 0 -311 118.5t-118 313.5 z" />
<glyph unicode="H" d="M124 0v1924h426v-775h687v775h426v-1924h-426v778h-687v-778h-426z" />
<glyph unicode="I" d="M124 0v371h558v1182h-558v371h1539v-371h-558v-1182h558v-371h-1539z" />
<glyph unicode="J" d="M124 432v255h426v-233q0 -83 82 -83h523q82 0 82 83v1470h426v-1492q0 -196 -117.5 -314t-313.5 -118h-679q-193 0 -311 118.5t-118 313.5z" />
<glyph unicode="K" d="M124 0v1924h426v-923l563 923h501l-611 -932l660 -992h-495l-618 921v-921h-426z" />
<glyph unicode="L" d="M124 0v1924h426v-1553h1113v-371h-1539z" />
<glyph unicode="M" d="M124 0v1924h412l355 -659l360 659h412v-1924h-426v1086l-346 -591l-341 591v-1086h-426z" />
<glyph unicode="N" d="M124 0v1924h398l715 -1141v1141h426v-1924h-398l-715 1141v-1141h-426z" />
<glyph unicode="O" d="M124 432v1061q0 195 118 313t311 118h679q196 0 313.5 -117.5t117.5 -313.5v-1061q0 -196 -117.5 -314t-313.5 -118h-679q-193 0 -311 118.5t-118 313.5zM550 454q0 -83 82 -83h523q82 0 82 83v1017q0 82 -82 82h-523q-82 0 -82 -82v-1017z" />
<glyph unicode="P" d="M124 0v1924h1108q196 0 313.5 -117.5t117.5 -313.5v-421q0 -196 -117.5 -313.5t-313.5 -117.5h-682v-641h-426zM550 1012h605q82 0 82 82v377q0 82 -82 82h-605v-541z" />
<glyph unicode="Q" d="M124 432v1061q0 195 118 313t311 118h679q196 0 313.5 -117.5t117.5 -313.5v-1061q0 -196 -117.5 -314t-313.5 -118h-124v-302h-426v302h-129q-193 0 -311 118.5t-118 313.5zM550 454q0 -83 82 -83h523q82 0 82 83v1017q0 82 -82 82h-523q-82 0 -82 -82v-1017z" />
<glyph unicode="R" d="M124 0v1924h1108q196 0 313.5 -117.5t117.5 -313.5v-421q0 -159 -80.5 -269.5t-221.5 -145.5l302 -657h-467l-275 641h-371v-641h-426zM550 1012h605q82 0 82 82v377q0 82 -82 82h-605v-541z" />
<glyph unicode="S" d="M124 432v173h426v-151q0 -83 82 -83h523q82 0 82 83v241q0 83 -82 83h-602q-193 0 -311 118.5t-118 313.5v283q0 195 118 313t311 118h679q196 0 313.5 -117.5t117.5 -313.5v-173h-426v151q0 82 -82 82h-523q-82 0 -82 -82v-239q0 -83 82 -83h602q193 0 311 -118.5 t118 -313.5v-285q0 -195 -118 -313.5t-311 -118.5h-679q-196 0 -313.5 118t-117.5 314z" />
<glyph unicode="T" d="M124 1553v371h1539v-371h-558v-1553h-426v1553h-555z" />
<glyph unicode="U" d="M124 432v1492h426v-1470q0 -83 82 -83h523q82 0 82 83v1470h426v-1492q0 -196 -117.5 -314t-313.5 -118h-679q-193 0 -311 118.5t-118 313.5z" />
<glyph unicode="V" horiz-adv-x="1784" d="M124 1924h434l333 -1446l335 1446h434l-464 -1924h-608z" />
<glyph unicode="W" d="M124 1924h409l86 -1333l192 838h165l190 -838l88 1333h409l-159 -1924h-396l-215 723l-211 -723h-402z" />
<glyph unicode="X" d="M124 0l495 973l-495 951h481l288 -613l289 613h481l-495 -951l495 -973h-481l-289 668l-288 -668h-481z" />
<glyph unicode="Y" d="M124 1924h453l316 -745l317 745h453l-555 -1185v-739h-429v739z" />
<glyph unicode="Z" d="M124 1553v371h1539v-371l-987 -1182h987v-371h-1495v371l987 1182h-1031z" />
<glyph unicode="\" d="M275 2117h393l871 -2309h-393z" />
<glyph unicode="`" horiz-adv-x="1649" d="M415 1850l11 99l858 -88l-14 -93z" />
<glyph unicode="a" d="M124 0l464 1924h608l467 -1924h-434l-94 407h-483l-94 -407h-434zM737 778h308l-154 668z" />
<glyph unicode="b" d="M124 0v1924h1108q196 0 313.5 -117.5t117.5 -313.5v-160q0 -124 -51.5 -219t-143.5 -152q92 -57 143.5 -152t51.5 -219v-159q0 -196 -117.5 -314t-313.5 -118h-1108zM550 371h605q82 0 82 83v241q0 83 -82 83h-605v-407zM550 1149h605q82 0 82 83v239q0 82 -82 82h-605 v-404z" />
<glyph unicode="c" d="M124 432v1061q0 195 118 313t311 118h679q196 0 313.5 -117.5t117.5 -313.5v-256h-426v234q0 82 -82 82h-523q-82 0 -82 -82v-1017q0 -83 82 -83h523q82 0 82 83v233h426v-255q0 -196 -117.5 -314t-313.5 -118h-679q-193 0 -311 118.5t-118 313.5z" />
<glyph unicode="d" d="M124 0v1924h1108q196 0 313.5 -117.5t117.5 -313.5v-1061q0 -196 -117.5 -314t-313.5 -118h-1108zM550 371h605q82 0 82 83v1017q0 82 -82 82h-605v-1182z" />
<glyph unicode="e" d="M124 0v1924h1539v-371h-1113v-404h921v-371h-921v-407h1113v-371h-1539z" />
<glyph unicode="f" d="M124 0v1924h1539v-371h-1113v-486h976v-372h-976v-695h-426z" />
<glyph unicode="g" d="M124 432v1061q0 195 118 313t311 118h679q196 0 313.5 -117.5t117.5 -313.5v-201h-426v179q0 82 -82 82h-523q-82 0 -82 -82v-1017q0 -83 82 -83h523q82 0 82 83v241h-407v372h833v-1067h-313l-61 143q-56 -69 -141.5 -106t-190.5 -37h-404q-193 0 -311 118.5t-118 313.5 z" />
<glyph unicode="h" d="M124 0v1924h426v-775h687v775h426v-1924h-426v778h-687v-778h-426z" />
<glyph unicode="i" d="M124 0v371h558v1182h-558v371h1539v-371h-558v-1182h558v-371h-1539z" />
<glyph unicode="j" d="M124 432v255h426v-233q0 -83 82 -83h523q82 0 82 83v1470h426v-1492q0 -196 -117.5 -314t-313.5 -118h-679q-193 0 -311 118.5t-118 313.5z" />
<glyph unicode="k" d="M124 0v1924h426v-923l563 923h501l-611 -932l660 -992h-495l-618 921v-921h-426z" />
<glyph unicode="l" d="M124 0v1924h426v-1553h1113v-371h-1539z" />
<glyph unicode="m" d="M124 0v1924h412l355 -659l360 659h412v-1924h-426v1086l-346 -591l-341 591v-1086h-426z" />
<glyph unicode="n" d="M124 0v1924h398l715 -1141v1141h426v-1924h-398l-715 1141v-1141h-426z" />
<glyph unicode="o" d="M124 432v1061q0 195 118 313t311 118h679q196 0 313.5 -117.5t117.5 -313.5v-1061q0 -196 -117.5 -314t-313.5 -118h-512q-306 0 -451 113.5t-145 318.5zM550 454q0 -83 82 -83h523q82 0 82 83v1017q0 82 -82 82h-523q-82 0 -82 -82v-1017z" />
<glyph unicode="p" d="M124 0v1924h1108q196 0 313.5 -117.5t117.5 -313.5v-421q0 -196 -117.5 -313.5t-313.5 -117.5h-682v-641h-426zM550 1012h605q82 0 82 82v377q0 82 -82 82h-605v-541z" />
<glyph unicode="q" d="M124 432v1061q0 195 118 313t311 118h679q196 0 313.5 -117.5t117.5 -313.5v-1061q0 -196 -117.5 -314t-313.5 -118h-124v-302h-426v302h-129q-193 0 -311 118.5t-118 313.5zM550 454q0 -83 82 -83h523q82 0 82 83v1017q0 82 -82 82h-523q-82 0 -82 -82v-1017z" />
<glyph unicode="r" d="M124 0v1924h1108q196 0 313.5 -117.5t117.5 -313.5v-421q0 -159 -80.5 -269.5t-221.5 -145.5l302 -657h-467l-275 641h-371v-641h-426zM550 1012h605q82 0 82 82v377q0 82 -82 82h-605v-541z" />
<glyph unicode="s" d="M124 432v173h426v-151q0 -83 82 -83h523q82 0 82 83v241q0 83 -82 83h-602q-193 0 -311 118.5t-118 313.5v283q0 195 118 313t311 118h679q196 0 313.5 -117.5t117.5 -313.5v-173h-426v151q0 82 -82 82h-523q-82 0 -82 -82v-239q0 -83 82 -83h602q193 0 311 -118.5 t118 -313.5v-285q0 -195 -118 -313.5t-311 -118.5h-679q-196 0 -313.5 118t-117.5 314z" />
<glyph unicode="t" d="M124 1553v371h1539v-371h-558v-1553h-426v1553h-555z" />
<glyph unicode="u" d="M124 432v1492h426v-1470q0 -83 82 -83h523q82 0 82 83v1470h426v-1492q0 -196 -117.5 -314t-313.5 -118h-679q-193 0 -311 118.5t-118 313.5z" />
<glyph unicode="v" horiz-adv-x="1784" d="M124 1924h434l333 -1446l335 1446h434l-464 -1924h-608z" />
<glyph unicode="w" d="M124 1924h409l86 -1333l192 838h165l190 -838l88 1333h409l-159 -1924h-396l-215 723l-211 -723h-402z" />
<glyph unicode="x" d="M124 0l495 973l-495 951h481l288 -613l289 613h481l-495 -951l495 -973h-481l-289 668l-288 -668h-481z" />
<glyph unicode="y" d="M124 1924h453l316 -745l317 745h453l-555 -1185v-739h-429v739z" />
<glyph unicode="z" d="M124 1553v371h1539v-371l-987 -1182h987v-371h-1495v371l987 1182h-1031z" />
<glyph unicode="&#xa0;" />
<glyph unicode="&#xad;" horiz-adv-x="1649" d="M344 652v184h962v-184h-962z" />
<glyph unicode="&#xb4;" horiz-adv-x="1649" d="M514 1861l858 88l11 -99l-855 -82z" />
<glyph unicode="&#xb7;" horiz-adv-x="1649" d="M624 602v399h401v-399h-401z" />
<glyph unicode="&#xc0;" d="M124 0l481 1704h574l484 -1704h-440l-99 379h-467l-99 -379h-434zM404 1850l11 99l858 -88l-14 -93zM753 745h275l-137 533z" />
<glyph unicode="&#xc1;" d="M124 0l481 1704h574l484 -1704h-440l-99 379h-467l-99 -379h-434zM514 1861l858 88l11 -99l-855 -82zM753 745h275l-137 533z" />
<glyph unicode="&#xc2;" d="M124 0l481 1704h574l484 -1704h-440l-99 379h-467l-99 -379h-434zM429 1850l420 88h88l421 -88l-19 -96l-446 96l-445 -96zM753 745h275l-137 533z" />
<glyph unicode="&#xc3;" d="M124 0l481 1704h574l484 -1704h-440l-99 379h-467l-99 -379h-434zM426 1856q117 79 269 79q84 0 209.5 -34t192.5 -34q117 0 214 60l50 -77q-118 -80 -275 -80q-84 0 -209.5 34.5t-192.5 34.5q-111 0 -208 -60zM753 745h275l-137 533z" />
<glyph unicode="&#xc8;" d="M124 0v1704h1539v-362h-1119v-311h927v-355h-927v-313h1119v-363h-1539zM404 1850l11 99l858 -88l-14 -93z" />
<glyph unicode="&#xc9;" d="M124 0v1704h1539v-362h-1119v-311h927v-355h-927v-313h1119v-363h-1539zM514 1861l858 88l11 -99l-855 -82z" />
<glyph unicode="&#xca;" d="M124 0v1704h1539v-362h-1119v-311h927v-355h-927v-313h1119v-363h-1539zM429 1850l420 88h88l421 -88l-19 -96l-446 96l-445 -96z" />
<glyph unicode="&#xcc;" d="M124 0v366h558v973h-558v365h1539v-365h-558v-973h558v-366h-1539zM404 1850l11 99l858 -88l-14 -93z" />
<glyph unicode="&#xcd;" d="M124 0v366h558v973h-558v365h1539v-365h-558v-973h558v-366h-1539zM514 1861l858 88l11 -99l-855 -82z" />
<glyph unicode="&#xd2;" d="M124 432v841q0 195 118 313t311 118h679q196 0 313.5 -117.5t117.5 -313.5v-841q0 -196 -117.5 -314t-313.5 -118h-679q-193 0 -311 118.5t-118 313.5zM404 1850l11 99l858 -88l-14 -93zM544 448q0 -82 83 -82h533q83 0 83 82v808q0 83 -83 83h-533q-83 0 -83 -83v-808z " />
<glyph unicode="&#xd3;" d="M124 432v841q0 195 118 313t311 118h679q196 0 313.5 -117.5t117.5 -313.5v-841q0 -196 -117.5 -314t-313.5 -118h-679q-193 0 -311 118.5t-118 313.5zM514 1861l858 88l11 -99l-855 -82zM544 448q0 -82 83 -82h533q83 0 83 82v808q0 83 -83 83h-533q-83 0 -83 -83v-808z " />
<glyph unicode="&#xd4;" d="M124 432v841q0 195 118 313t311 118h679q196 0 313.5 -117.5t117.5 -313.5v-841q0 -196 -117.5 -314t-313.5 -118h-679q-193 0 -311 118.5t-118 313.5zM429 1850l420 88h88l421 -88l-19 -96l-446 96l-445 -96zM544 448q0 -82 83 -82h533q83 0 83 82v808q0 83 -83 83h-533 q-83 0 -83 -83v-808z" />
<glyph unicode="&#xd5;" d="M124 432v841q0 195 118 313t311 118h679q196 0 313.5 -117.5t117.5 -313.5v-841q0 -196 -117.5 -314t-313.5 -118h-679q-193 0 -311 118.5t-118 313.5zM426 1856q117 79 269 79q84 0 209.5 -34t192.5 -34q117 0 214 60l50 -77q-118 -80 -275 -80q-84 0 -209.5 34.5 t-192.5 34.5q-111 0 -208 -60zM544 448q0 -82 83 -82h533q83 0 83 82v808q0 83 -83 83h-533q-83 0 -83 -83v-808z" />
<glyph unicode="&#xd9;" d="M124 432v1272h420v-1259q0 -82 83 -82h533q83 0 83 82v1259h420v-1272q0 -196 -117.5 -314t-313.5 -118h-679q-193 0 -311 118.5t-118 313.5zM404 1850l11 99l858 -88l-14 -93z" />
<glyph unicode="&#xda;" d="M124 432v1272h420v-1259q0 -82 83 -82h533q83 0 83 82v1259h420v-1272q0 -196 -117.5 -314t-313.5 -118h-679q-193 0 -311 118.5t-118 313.5zM514 1861l858 88l11 -99l-855 -82z" />
<glyph unicode="&#xdd;" d="M124 1704h442l327 -739l328 739h442l-561 -1099v-605h-418v605zM514 1861l858 88l11 -99l-855 -82z" />
<glyph unicode="&#xe0;" d="M124 0l481 1704h574l484 -1704h-440l-99 379h-467l-99 -379h-434zM404 1850l11 99l858 -88l-14 -93zM753 745h275l-137 533z" />
<glyph unicode="&#xe1;" d="M124 0l481 1704h574l484 -1704h-440l-99 379h-467l-99 -379h-434zM514 1861l858 88l11 -99l-855 -82zM753 745h275l-137 533z" />
<glyph unicode="&#xe2;" d="M124 0l481 1704h574l484 -1704h-440l-99 379h-467l-99 -379h-434zM429 1850l420 88h88l421 -88l-19 -96l-446 96l-445 -96zM753 745h275l-137 533z" />
<glyph unicode="&#xe3;" d="M124 0l481 1704h574l484 -1704h-440l-99 379h-467l-99 -379h-434zM426 1856q117 79 269 79q84 0 209.5 -34t192.5 -34q117 0 214 60l50 -77q-118 -80 -275 -80q-84 0 -209.5 34.5t-192.5 34.5q-111 0 -208 -60zM753 745h275l-137 533z" />
<glyph unicode="&#xe8;" d="M124 0v1704h1539v-362h-1119v-311h927v-355h-927v-313h1119v-363h-1539zM404 1850l11 99l858 -88l-14 -93z" />
<glyph unicode="&#xe9;" d="M124 0v1704h1539v-362h-1119v-311h927v-355h-927v-313h1119v-363h-1539zM514 1861l858 88l11 -99l-855 -82z" />
<glyph unicode="&#xea;" d="M124 0v1704h1539v-362h-1119v-311h927v-355h-927v-313h1119v-363h-1539zM429 1850l420 88h88l421 -88l-19 -96l-446 96l-445 -96z" />
<glyph unicode="&#xec;" d="M124 0v366h558v973h-558v365h1539v-365h-558v-973h558v-366h-1539zM404 1850l11 99l858 -88l-14 -93z" />
<glyph unicode="&#xed;" d="M124 0v366h558v973h-558v365h1539v-365h-558v-973h558v-366h-1539zM514 1861l858 88l11 -99l-855 -82z" />
<glyph unicode="&#xf2;" d="M124 432v841q0 195 118 313t311 118h679q196 0 313.5 -117.5t117.5 -313.5v-841q0 -196 -117.5 -314t-313.5 -118h-679q-193 0 -311 118.5t-118 313.5zM404 1850l11 99l858 -88l-14 -93zM544 448q0 -82 83 -82h533q83 0 83 82v808q0 83 -83 83h-533q-83 0 -83 -83v-808z " />
<glyph unicode="&#xf3;" d="M124 432v841q0 195 118 313t311 118h679q196 0 313.5 -117.5t117.5 -313.5v-841q0 -196 -117.5 -314t-313.5 -118h-679q-193 0 -311 118.5t-118 313.5zM514 1861l858 88l11 -99l-855 -82zM544 448q0 -82 83 -82h533q83 0 83 82v808q0 83 -83 83h-533q-83 0 -83 -83v-808z " />
<glyph unicode="&#xf4;" d="M124 432v841q0 195 118 313t311 118h679q196 0 313.5 -117.5t117.5 -313.5v-841q0 -196 -117.5 -314t-313.5 -118h-679q-193 0 -311 118.5t-118 313.5zM429 1850l420 88h88l421 -88l-19 -96l-446 96l-445 -96zM544 448q0 -82 83 -82h533q83 0 83 82v808q0 83 -83 83h-533 q-83 0 -83 -83v-808z" />
<glyph unicode="&#xf5;" d="M124 432v841q0 195 118 313t311 118h679q196 0 313.5 -117.5t117.5 -313.5v-841q0 -196 -117.5 -314t-313.5 -118h-679q-193 0 -311 118.5t-118 313.5zM426 1856q117 79 269 79q84 0 209.5 -34t192.5 -34q117 0 214 60l50 -77q-118 -80 -275 -80q-84 0 -209.5 34.5 t-192.5 34.5q-111 0 -208 -60zM544 448q0 -82 83 -82h533q83 0 83 82v808q0 83 -83 83h-533q-83 0 -83 -83v-808z" />
<glyph unicode="&#xf9;" d="M124 432v1272h420v-1259q0 -82 83 -82h533q83 0 83 82v1259h420v-1272q0 -196 -117.5 -314t-313.5 -118h-679q-193 0 -311 118.5t-118 313.5zM404 1850l11 99l858 -88l-14 -93z" />
<glyph unicode="&#xfa;" d="M124 432v1272h420v-1259q0 -82 83 -82h533q83 0 83 82v1259h420v-1272q0 -196 -117.5 -314t-313.5 -118h-679q-193 0 -311 118.5t-118 313.5zM514 1861l858 88l11 -99l-855 -82z" />
<glyph unicode="&#xfd;" d="M124 1704h442l327 -739l328 739h442l-561 -1099v-605h-418v605zM514 1861l858 88l11 -99l-855 -82z" />
<glyph unicode="&#x2c6;" horiz-adv-x="1649" d="M456 1850l421 88h88l420 -88l-19 -96l-445 96l-445 -96z" />
<glyph unicode="&#x2dc;" horiz-adv-x="1649" d="M437 1856q117 79 269 79q84 0 209.5 -34t192.5 -34q117 0 214 60l50 -77q-118 -80 -275 -80q-84 0 -209.5 34.5t-192.5 34.5q-111 0 -208 -60z" />
<glyph unicode="&#x2000;" horiz-adv-x="1189" />
<glyph unicode="&#x2001;" horiz-adv-x="2378" />
<glyph unicode="&#x2002;" horiz-adv-x="1189" />
<glyph unicode="&#x2003;" horiz-adv-x="2378" />
<glyph unicode="&#x2004;" horiz-adv-x="792" />
<glyph unicode="&#x2005;" horiz-adv-x="594" />
<glyph unicode="&#x2006;" horiz-adv-x="396" />
<glyph unicode="&#x2007;" horiz-adv-x="396" />
<glyph unicode="&#x2008;" horiz-adv-x="297" />
<glyph unicode="&#x2009;" horiz-adv-x="475" />
<glyph unicode="&#x200a;" horiz-adv-x="132" />
<glyph unicode="&#x2010;" horiz-adv-x="1649" d="M344 652v184h962v-184h-962z" />
<glyph unicode="&#x2011;" horiz-adv-x="1649" d="M344 652v184h962v-184h-962z" />
<glyph unicode="&#x2012;" horiz-adv-x="1649" d="M344 652v184h962v-184h-962z" />
<glyph unicode="&#x2013;" horiz-adv-x="1649" d="M247 652v184h1155v-184h-1155z" />
<glyph unicode="&#x2014;" horiz-adv-x="1649" d="M55 652v184h1539v-184h-1539z" />
<glyph unicode="&#x202f;" horiz-adv-x="475" />
<glyph unicode="&#x205f;" horiz-adv-x="594" />
<glyph unicode="&#x2122;" d="M124 385v1539h1539v-1539h-1539zM396 1333h165v-467h129v467h165v110h-459v-110zM929 866h129v324l102 -176l105 176v-324h129v577h-127l-107 -198l-107 198h-124v-577z" />
<glyph unicode="&#x25fc;" horiz-adv-x="1924" d="M0 0v1924h1924v-1924h-1924z" />
</font>
</defs>
</svg>
