<?xml version="1.0" encoding="UTF-8"?>
<svg width="409px" height="183px" viewBox="0 0 409 183" version="1.1" xmlns="http://www.w3.org/2000/svg" xmlns:xlink="http://www.w3.org/1999/xlink">
    <!-- Generator: Sketch 59.1 (86144) - https://sketch.com -->
    <title>Logo</title>
    <desc>Created with Sketch.</desc>
    <defs>
        <polygon id="path-1" points="0 0.5208 44.7998 0.5208 44.7998 56.5208 0 56.5208"></polygon>
        <polygon id="path-3" points="0.9975 0.5204 45.796 0.5204 45.796 45.3204 0.9975 45.3204"></polygon>
        <polygon id="path-5" points="0 0.7196 44.7998 0.7196 44.7998 56.7196 0 56.7196"></polygon>
        <polygon id="path-7" points="0.9973 0.7199 45.796 0.7199 45.796 56.7199 0.9973 56.7199"></polygon>
        <polygon id="path-9" points="0.0003 0.0003 44.7993 0.0003 44.7993 56 0.0003 56"></polygon>
        <polygon id="path-11" points="0.9993 0.9204 45.7983 0.9204 45.7983 57 0.9993 57"></polygon>
        <polygon id="path-13" points="0.9979 0.0001 45.7979 0.0001 45.7979 56 0.9979 56"></polygon>
        <polygon id="path-15" points="0.9978 0.0001 45.7968 0.0001 45.7968 56 0.9978 56"></polygon>
        <polygon id="path-17" points="0.9974 0.0003 45.7964 0.0003 45.7964 56 0.9974 56"></polygon>
        <polygon id="path-19" points="0.9973 0.0002 45.796 0.0002 45.796 56 0.9973 56"></polygon>
    </defs>
    <g id="Desktop" stroke="none" stroke-width="1" fill="none" fill-rule="evenodd">
        <g id="Home" transform="translate(-157.000000, -63.000000)">
            <g id="desktop.logo-full-white" transform="translate(157.000000, 63.000000)">
                <g id="Logo" transform="translate(0.000000, -1.000000)">
                    <g id="Group-3" transform="translate(0.000000, 0.480000)">
                        <mask id="mask-2" fill="white">
                            <use xlink:href="#path-1"></use>
                        </mask>
                        <g id="Clip-2"></g>
                        <path d="M32.3998,13.7198 C32.3998,12.1198 31.5998,11.3208 29.9998,11.3208 L12.3998,11.3208 L12.3998,27.0798 L29.9998,27.0798 C31.5998,27.0798 32.3998,26.2808 32.3998,24.6808 L32.3998,13.7198 Z M32.2398,37.8798 L12.3998,37.8798 L12.3998,56.5208 L-0.0002,56.5208 L-0.0002,0.5208 L32.2398,0.5208 C36.0258,0.5208 39.0658,1.6678 41.3598,3.9598 C43.6518,6.2538 44.7998,9.2938 44.7998,13.0798 L44.7998,25.3208 C44.7998,29.1078 43.6518,32.1478 41.3598,34.4408 C39.0658,36.7338 36.0258,37.8798 32.2398,37.8798 L32.2398,37.8798 Z" id="Fill-1" fill="#FFFFFF" mask="url(#mask-2)"></path>
                    </g>
                    <polygon id="Fill-4" fill="#FFFFFF" points="96.7988 1.0006 96.7988 11.8006 64.3998 11.8006 64.3998 23.5606 91.1988 23.5606 91.1988 34.3596 64.3998 34.3596 64.3998 46.1996 96.7988 46.1996 96.7988 57.0006 51.9998 57.0006 51.9998 1.0006"></polygon>
                    <path d="M136.3994,14.1998 C136.3994,12.5998 135.5994,11.8008 133.9994,11.8008 L116.3994,11.8008 L116.3994,27.5598 L133.9994,27.5598 C135.5994,27.5598 136.3994,26.7608 136.3994,25.1608 L136.3994,14.1998 Z M136.2394,38.3598 L116.3994,38.3598 L116.3994,57.0008 L103.9994,57.0008 L103.9994,1.0008 L136.2394,1.0008 C140.0254,1.0008 143.0654,2.1478 145.3594,4.4398 C147.6514,6.7338 148.7984,9.7738 148.7984,13.5598 L148.7984,25.8008 C148.7984,29.5878 147.6514,32.6278 145.3594,34.9208 C143.0654,37.2138 140.0254,38.3598 136.2394,38.3598 L136.2394,38.3598 Z" id="Fill-6" fill="#FFFFFF"></path>
                    <path d="M188.3984,14.1998 C188.3984,12.5998 187.5984,11.8008 185.9994,11.8008 L168.3984,11.8008 L168.3984,27.5598 L185.9994,27.5598 C187.5984,27.5598 188.3984,26.7608 188.3984,25.1608 L188.3984,14.1998 Z M188.2384,38.3598 L168.3984,38.3598 L168.3984,57.0008 L155.9994,57.0008 L155.9994,1.0008 L188.2384,1.0008 C192.0244,1.0008 195.0644,2.1478 197.3584,4.4398 C199.6514,6.7338 200.7984,9.7738 200.7984,13.5598 L200.7984,25.8008 C200.7984,29.5878 199.6514,32.6278 197.3584,34.9208 C195.0644,37.2138 192.0244,38.3598 188.2384,38.3598 L188.2384,38.3598 Z" id="Fill-8" fill="#FFFFFF"></path>
                    <polygon id="Fill-10" fill="#FFFFFF" points="252.7978 1.0006 252.7978 11.8006 220.3978 11.8006 220.3978 23.5606 247.1978 23.5606 247.1978 34.3596 220.3978 34.3596 220.3978 46.1996 252.7978 46.1996 252.7978 57.0006 207.9978 57.0006 207.9978 1.0006"></polygon>
                    <path d="M292.3974,14.1998 C292.3974,12.5998 291.5974,11.8008 289.9974,11.8008 L272.3974,11.8008 L272.3974,27.5598 L289.9974,27.5598 C291.5974,27.5598 292.3974,26.7608 292.3974,25.1608 L292.3974,14.1998 Z M295.9974,37.8808 L304.7964,57.0008 L291.1974,57.0008 L283.1974,38.3598 L272.3974,38.3598 L272.3974,57.0008 L259.9974,57.0008 L259.9974,1.0008 L292.2374,1.0008 C296.0234,1.0008 299.0634,2.1478 301.3574,4.4398 C303.6494,6.7338 304.7964,9.7738 304.7964,13.5598 L304.7964,25.8008 C304.7964,28.8938 304.0094,31.5088 302.4374,33.6398 C300.8634,35.7738 298.7174,37.1878 295.9974,37.8808 L295.9974,37.8808 Z" id="Fill-12" fill="#FFFFFF"></path>
                    <g id="Group-16" transform="translate(363.000000, 0.480000)">
                        <mask id="mask-4" fill="white">
                            <use xlink:href="#path-3"></use>
                        </mask>
                        <g id="Clip-15"></g>
                        <path d="M37.9565,31.3204 L37.9565,14.5204 L34.2765,14.5204 L31.1565,20.2804 L28.0365,14.5204 L24.4365,14.5204 L24.4365,31.3204 L28.1965,31.3204 L28.1965,21.8804 L31.1565,27.0004 L34.1965,21.8804 L34.1965,31.3204 L37.9565,31.3204 Z M22.2765,17.7194 L22.2765,14.5204 L8.9165,14.5204 L8.9165,17.7194 L13.7165,17.7194 L13.7165,31.3204 L17.4765,31.3204 L17.4765,17.7194 L22.2765,17.7194 Z M0.9975,45.3204 L45.7965,45.3204 L45.7965,0.5204 L0.9975,0.5204 L0.9975,45.3204 Z" id="Fill-14" fill="#FFFFFF" mask="url(#mask-4)"></path>
                    </g>
                    <g id="Group-19" transform="translate(0.000000, 63.480000)">
                        <mask id="mask-6" fill="white">
                            <use xlink:href="#path-5"></use>
                        </mask>
                        <g id="Clip-18"></g>
                        <path d="M32.3998,36.4796 C32.3998,34.8796 31.5998,34.0806 29.9998,34.0806 L12.3998,34.0806 L12.3998,45.9196 L29.9998,45.9196 C31.5998,45.9196 32.3998,45.1206 32.3998,43.5206 L32.3998,36.4796 Z M32.3998,13.9196 C32.3998,12.3206 31.5998,11.5206 29.9998,11.5206 L12.3998,11.5206 L12.3998,23.2806 L29.9998,23.2806 C31.5998,23.2806 32.3998,22.4796 32.3998,20.8796 L32.3998,13.9196 Z M44.7998,17.9196 C44.7998,20.3746 44.2928,22.5206 43.2798,24.3606 C42.2668,26.2006 40.8788,27.6536 39.1198,28.7196 C40.8788,29.7886 42.2668,31.2406 43.2798,33.0806 C44.2928,34.9196 44.7998,37.0676 44.7998,39.5206 L44.7998,44.1606 C44.7998,47.9476 43.6518,50.9876 41.3598,53.2806 C39.0658,55.5736 36.0258,56.7196 32.2398,56.7196 L-0.0002,56.7196 L-0.0002,0.7196 L32.2398,0.7196 C36.0258,0.7196 39.0658,1.8686 41.3598,4.1606 C43.6518,6.4546 44.7998,9.4936 44.7998,13.2806 L44.7998,17.9196 Z" id="Fill-17" fill="#3F3F3F" mask="url(#mask-6)"></path>
                    </g>
                    <path d="M96.7988,64.1998 L96.7988,107.6398 C96.7988,111.4278 95.6518,114.4678 93.3598,116.7608 C91.0658,119.0538 88.0258,120.1998 84.2388,120.1998 L64.4798,120.1998 C60.7458,120.1998 57.7318,119.0538 55.4388,116.7608 C53.1458,114.4678 51.9998,111.4278 51.9998,107.6398 L51.9998,64.1998 L64.3998,64.1998 L64.3998,107.0008 C64.3998,108.5998 65.1988,109.3998 66.7988,109.3998 L81.9998,109.3998 C83.5988,109.3998 84.3998,108.5998 84.3998,107.0008 L84.3998,64.1998 L96.7988,64.1998 Z" id="Fill-20" fill="#3F3F3F"></path>
                    <polygon id="Fill-22" fill="#3F3F3F" points="132.6396 75.0006 132.6396 109.3996 148.8786 109.3996 148.8786 120.1996 103.9996 120.1996 103.9996 109.3996 120.2396 109.3996 120.2396 75.0006 103.9996 75.0006 103.9996 64.1996 148.8786 64.1996 148.8786 75.0006"></polygon>
                    <polygon id="Fill-24" fill="#3F3F3F" points="168.3984 64.1998 168.3984 109.3998 200.7984 109.3998 200.7984 120.1998 155.9994 120.1998 155.9994 64.1998"></polygon>
                    <path d="M240.3979,77.4 C240.3979,75.8 239.5979,75.001 237.9979,75.001 L220.3979,75.001 L220.3979,109.4 L237.9979,109.4 C239.5979,109.4 240.3979,108.6 240.3979,107.001 L240.3979,77.4 Z M240.2379,120.2 L207.9979,120.2 L207.9979,64.2 L240.2379,64.2 C244.0239,64.2 247.0639,65.348 249.3579,67.64 C251.6499,69.934 252.7979,72.973 252.7979,76.76 L252.7979,107.64 C252.7979,111.427 251.6499,114.467 249.3579,116.76 C247.0639,119.053 244.0239,120.2 240.2379,120.2 L240.2379,120.2 Z" id="Fill-26" fill="#3F3F3F"></path>
                    <polygon id="Fill-28" fill="#3F3F3F" points="304.7968 64.1998 304.7968 75.0008 272.3978 75.0008 272.3978 86.7608 299.1968 86.7608 299.1968 97.5598 272.3978 97.5598 272.3978 109.3998 304.7968 109.3998 304.7968 120.1998 259.9978 120.1998 259.9978 64.1998"></polygon>
                    <path d="M344.3964,77.4 C344.3964,75.8 343.5964,75.001 341.9974,75.001 L324.3964,75.001 L324.3964,90.76 L341.9974,90.76 C343.5964,90.76 344.3964,89.96 344.3964,88.36 L344.3964,77.4 Z M347.9974,101.081 L356.7964,120.2 L343.1964,120.2 L335.1964,101.56 L324.3964,101.56 L324.3964,120.2 L311.9974,120.2 L311.9974,64.2 L344.2364,64.2 C348.0224,64.2 351.0624,65.348 353.3564,67.64 C355.6494,69.934 356.7964,72.973 356.7964,76.76 L356.7964,89.001 C356.7964,92.094 356.0094,94.708 354.4364,96.84 C352.8624,98.973 350.7164,100.387 347.9974,101.081 L347.9974,101.081 Z" id="Fill-30" fill="#3F3F3F"></path>
                    <g id="Group-34" transform="translate(363.000000, 63.480000)">
                        <mask id="mask-8" fill="white">
                            <use xlink:href="#path-7"></use>
                        </mask>
                        <g id="Clip-33"></g>
                        <path d="M45.7963,35.8399 L45.7963,44.1599 C45.7963,47.9469 44.6493,50.9869 42.3573,53.2799 C40.0623,55.5729 37.0483,56.7199 33.3163,56.7199 L13.5563,56.7199 C9.7693,56.7199 6.7293,55.5729 4.4363,53.2799 C2.1423,50.9869 0.9973,47.9469 0.9973,44.1599 L0.9973,39.1199 L13.3963,39.1199 L13.3963,43.5209 C13.3963,45.1199 14.1963,45.9199 15.7963,45.9199 L30.9973,45.9199 C32.5963,45.9199 33.3963,45.1199 33.3963,43.5209 L33.3963,36.4799 C33.3963,34.8799 32.5963,34.0799 30.9973,34.0799 L13.4763,34.0799 C9.7433,34.0799 6.7293,32.9339 4.4363,30.6399 C2.1423,28.3479 0.9973,25.3079 0.9973,21.5209 L0.9973,13.2799 C0.9973,9.4929 2.1423,6.4539 4.4363,4.1599 C6.7293,1.8679 9.7433,0.7199 13.4763,0.7199 L33.2363,0.7199 C37.0233,0.7199 40.0623,1.8679 42.3573,4.1599 C44.6493,6.4539 45.7963,9.4929 45.7963,13.2799 L45.7963,18.3199 L33.3963,18.3199 L33.3963,13.9199 C33.3963,12.3199 32.5963,11.5209 30.9973,11.5209 L15.7963,11.5209 C14.1963,11.5209 13.3963,12.3199 13.3963,13.9199 L13.3963,20.8799 C13.3963,22.4799 14.1963,23.2799 15.7963,23.2799 L33.3163,23.2799 C37.0483,23.2799 40.0623,24.4279 42.3573,26.7199 C44.6493,29.0139 45.7963,32.0539 45.7963,35.8399" id="Fill-32" fill="#3F3F3F" mask="url(#mask-8)"></path>
                    </g>
                    <g id="Group-37" transform="translate(0.000000, 127.480000)">
                        <mask id="mask-10" fill="white">
                            <use xlink:href="#path-9"></use>
                        </mask>
                        <g id="Clip-36"></g>
                        <path d="M26.7993,43.2003 L26.7993,33.3603 L14.7993,33.3603 C13.1993,33.3603 12.4003,34.1603 12.4003,35.7603 L12.4003,42.8003 C12.4003,44.3993 13.1993,45.2003 14.7993,45.2003 L24.4003,45.2003 C25.8403,45.2003 26.6403,44.5343 26.7993,43.2003 L26.7993,43.2003 Z M39.1993,56.0003 L30.0793,56.0003 L28.3203,51.8403 C27.2523,53.1743 26.0123,54.2003 24.5993,54.9203 C23.1863,55.6393 21.4663,56.0003 19.4393,56.0003 L12.4803,56.0003 C8.7463,56.0003 5.7323,54.8533 3.4393,52.5593 C1.1463,50.2673 0.0003,47.2273 0.0003,43.4403 L0.0003,38.7203 C0.0003,36.3203 0.4923,34.2003 1.4803,32.3603 C2.4663,30.5203 3.8403,29.0673 5.5993,28.0003 C3.8403,26.9333 2.4663,25.4793 1.4803,23.6393 C0.4923,21.8003 0.0003,19.6533 0.0003,17.2003 L0.0003,12.5593 C0.0003,8.7733 1.1463,5.7333 3.4393,3.4403 C5.7323,1.1473 8.7723,0.0003 12.5603,0.0003 L26.6403,0.0003 C30.4253,0.0003 33.4663,1.1473 35.7593,3.4403 C38.0523,5.7333 39.1993,8.7733 39.1993,12.5593 L39.1993,17.6003 L26.7993,17.6003 L26.7993,13.2003 C26.7993,11.6003 26.0003,10.8003 24.4003,10.8003 L14.7993,10.8003 C13.1993,10.8003 12.4003,11.6003 12.4003,13.2003 L12.4003,20.1603 C12.4003,21.7603 13.1993,22.5593 14.7993,22.5593 L44.7993,22.5593 L44.7993,33.3603 L39.1993,33.3603 L39.1993,56.0003 Z" id="Fill-35" fill="#3F3F3F" mask="url(#mask-10)"></path>
                    </g>
                    <polygon id="Fill-38" fill="#3F3F3F" points="126.3193 169.0806 116.3993 151.8796 116.3993 183.4796 103.9993 183.4796 103.9993 127.4796 115.9993 127.4796 126.3193 146.6806 136.7983 127.4796 148.7983 127.4796 148.7983 183.4796 136.3993 183.4796 136.3993 151.8796"></polygon>
                    <g id="Group-42" transform="translate(155.000000, 126.480000)">
                        <mask id="mask-12" fill="white">
                            <use xlink:href="#path-11"></use>
                        </mask>
                        <g id="Clip-41"></g>
                        <path d="M27.7983,34.3604 L23.3183,14.9204 L18.8393,34.3604 L27.7983,34.3604 Z M30.4383,45.1604 L16.3593,45.1604 L13.6383,57.0004 L0.9993,57.0004 L14.5183,0.9204 L32.1983,1.0004 L45.7983,57.0004 L33.1583,57.0004 L30.4383,45.1604 Z" id="Fill-40" fill="#3F3F3F" mask="url(#mask-12)"></path>
                    </g>
                    <g id="Group-45" transform="translate(207.000000, 127.480000)">
                        <mask id="mask-14" fill="white">
                            <use xlink:href="#path-13"></use>
                        </mask>
                        <g id="Clip-44"></g>
                        <polygon id="Fill-43" fill="#3F3F3F" mask="url(#mask-14)" points="13.3979 56.0001 0.9979 56.0001 0.9979 0.0001 13.3979 0.0001 13.3979 26.8801 29.7979 0.0001 44.3579 0.0001 26.5979 27.1201 45.7979 56.0001 31.3979 56.0001 13.3979 29.2001"></polygon>
                    </g>
                    <g id="Group-48" transform="translate(259.000000, 127.480000)">
                        <mask id="mask-16" fill="white">
                            <use xlink:href="#path-15"></use>
                        </mask>
                        <g id="Clip-47"></g>
                        <polygon id="Fill-46" fill="#3F3F3F" mask="url(#mask-16)" points="45.7968 0.0001 45.7968 10.8001 13.3978 10.8001 13.3978 22.5601 40.1968 22.5601 40.1968 33.3601 13.3978 33.3601 13.3978 45.2001 45.7968 45.2001 45.7968 56.0001 0.9978 56.0001 0.9978 0.0001"></polygon>
                    </g>
                    <g id="Group-51" transform="translate(311.000000, 127.480000)">
                        <mask id="mask-18" fill="white">
                            <use xlink:href="#path-17"></use>
                        </mask>
                        <g id="Clip-50"></g>
                        <path d="M33.3964,13.2003 C33.3964,11.6003 32.5964,10.8003 30.9974,10.8003 L13.3964,10.8003 L13.3964,26.5593 L30.9974,26.5593 C32.5964,26.5593 33.3964,25.7603 33.3964,24.1603 L33.3964,13.2003 Z M36.9974,36.8803 L45.7964,56.0003 L32.1964,56.0003 L24.1964,37.3603 L13.3964,37.3603 L13.3964,56.0003 L0.9974,56.0003 L0.9974,0.0003 L33.2364,0.0003 C37.0224,0.0003 40.0624,1.1473 42.3564,3.4403 C44.6494,5.7333 45.7964,8.7733 45.7964,12.5593 L45.7964,24.8003 C45.7964,27.8933 45.0094,30.5083 43.4364,32.6393 C41.8624,34.7733 39.7164,36.1873 36.9974,36.8803 L36.9974,36.8803 Z" id="Fill-49" fill="#3F3F3F" mask="url(#mask-18)"></path>
                    </g>
                    <g id="Group-54" transform="translate(363.000000, 127.480000)">
                        <mask id="mask-20" fill="white">
                            <use xlink:href="#path-19"></use>
                        </mask>
                        <g id="Clip-53"></g>
                        <path d="M45.7963,35.1202 L45.7963,43.4402 C45.7963,47.2272 44.6493,50.2672 42.3573,52.5592 C40.0623,54.8532 37.0483,56.0002 33.3163,56.0002 L13.5563,56.0002 C9.7693,56.0002 6.7293,54.8532 4.4363,52.5592 C2.1423,50.2672 0.9973,47.2272 0.9973,43.4402 L0.9973,38.3992 L13.3963,38.3992 L13.3963,42.8002 C13.3963,44.3992 14.1963,45.2002 15.7963,45.2002 L30.9973,45.2002 C32.5963,45.2002 33.3963,44.3992 33.3963,42.8002 L33.3963,35.7602 C33.3963,34.1602 32.5963,33.3602 30.9973,33.3602 L13.4763,33.3602 C9.7433,33.3602 6.7293,32.2142 4.4363,29.9202 C2.1423,27.6282 0.9973,24.5872 0.9973,20.8002 L0.9973,12.5592 C0.9973,8.7732 2.1423,5.7332 4.4363,3.4402 C6.7293,1.1472 9.7433,0.0002 13.4763,0.0002 L33.2363,0.0002 C37.0233,0.0002 40.0623,1.1472 42.3573,3.4402 C44.6493,5.7332 45.7963,8.7732 45.7963,12.5592 L45.7963,17.6002 L33.3963,17.6002 L33.3963,13.2002 C33.3963,11.6002 32.5963,10.8002 30.9973,10.8002 L15.7963,10.8002 C14.1963,10.8002 13.3963,11.6002 13.3963,13.2002 L13.3963,20.1602 C13.3963,21.7602 14.1963,22.5592 15.7963,22.5592 L33.3163,22.5592 C37.0483,22.5592 40.0623,23.7082 42.3573,26.0002 C44.6493,28.2942 45.7963,31.3342 45.7963,35.1202" id="Fill-52" fill="#3F3F3F" mask="url(#mask-20)"></path>
                    </g>
                </g>
            </g>
        </g>
    </g>
</svg>