<?xml version="1.0" standalone="no"?>
<!DOCTYPE svg PUBLIC "-//W3C//DTD SVG 1.1//EN" "http://www.w3.org/Graphics/SVG/1.1/DTD/svg11.dtd" >
<svg xmlns="http://www.w3.org/2000/svg" xmlns:xlink="http://www.w3.org/1999/xlink" version="1.1">
<metadata></metadata>
<defs>
<font id="pf_din_mono_vnregular" horiz-adv-x="1126" >
<font-face units-per-em="2048" ascent="1602" descent="-446" />
<missing-glyph horiz-adv-x="500" />
<glyph unicode="&#xfb01;" d="M100 868v148h166v143q0 181 109 264q110 84 264 84q233 0 346 -131l-111 -116q-78 90 -245 90q-93 0 -142 -52q-51 -51 -51 -135v-147h535v-1016h-170v868h-365v-868h-170v868h-166z" />
<glyph unicode="&#xfb02;" d="M57 868v148h166v164q0 178 107 254q107 73 266 73q172 0 332 -69v-1188q0 -96 104 -96h49v-154h-71q-250 0 -250 236v1087q-76 27 -174 27q-89 0 -142 -41q-51 -42 -51 -125v-168h240v-148h-240v-868h-170v868h-166z" />
<glyph horiz-adv-x="0" />
<glyph unicode="&#xd;" />
<glyph unicode=" " />
<glyph unicode="!" d="M444 0v201h197v-201h-197zM444 1425h207l-35 -1063h-139z" />
<glyph unicode="&#x22;" d="M348 1425h195l-27 -448h-141zM588 1425h194l-26 -448h-142z" />
<glyph unicode="#" d="M88 442v117h205l43 311h-189v117h205l60 434h125l-60 -434h232l59 434h125l-59 -434h202v-117h-219l-43 -311h203v-117h-219l-60 -442h-125l60 442h-232l-59 -442h-125l59 442h-188zM418 559h231l43 311h-231z" />
<glyph unicode="$" d="M84 182l102 121q119 -113 254 -143v516q-142 46 -225 129q-82 79 -82 231q0 142 88 240t219 119v161h95v-1728h-95v174q-199 35 -356 180zM295 1036q0 -70 35 -114q36 -45 110 -74v383q-145 -50 -145 -195zM610 -172v1728h95v-159q162 -21 286 -121l-86 -135 q-92 65 -200 92v-459q62 -22 122 -49q44 -23 105 -68q60 -48 86 -110q26 -65 26 -156q0 -141 -92 -250q-92 -108 -247 -135v-178h-95zM705 166q167 49 167 231q0 147 -167 211v-442z" />
<glyph unicode="%" d="M20 -35l953 1495h127l-955 -1495h-125zM53 1040v146q0 107 74 178q71 68 176 68q106 0 180 -68q72 -72 72 -178v-146q0 -111 -72 -180q-73 -67 -180 -67q-106 0 -176 67q-74 68 -74 180zM182 1047q0 -64 33 -97q34 -37 88 -37q56 0 90 37q33 33 33 97v133q0 58 -33 94 q-34 37 -90 37q-54 0 -88 -37q-33 -36 -33 -94v-133zM555 236v145q0 107 74 178q71 68 176 68q106 0 180 -68q72 -72 72 -178v-145q0 -112 -72 -181q-73 -67 -180 -67q-106 0 -176 67q-74 68 -74 181zM684 242q0 -64 33 -97q33 -36 88 -36q57 0 90 36q33 33 33 97v133 q0 58 -33 94q-34 37 -90 37q-54 0 -88 -37q-33 -36 -33 -94v-133z" />
<glyph unicode="&#x26;" d="M41 342q0 131 68 240q68 106 217 200l-60 80q-102 138 -102 246q0 148 94 242q95 92 270 92q187 0 324 -125l-102 -121q-88 94 -226 94q-85 0 -139 -45q-57 -45 -57 -133q0 -73 71 -168l402 -541q63 113 92 248l156 -24q-51 -218 -150 -355l207 -272h-195l-118 154 q-169 -166 -363 -166q-190 0 -289 102q-100 100 -100 252zM205 352q0 -91 61 -149q58 -58 170 -58q70 0 144 41q77 44 120 90l-290 392q-205 -132 -205 -316z" />
<glyph unicode="'" d="M473 1425h205l-27 -448h-151z" />
<glyph unicode="(" d="M369 625q0 464 376 870l95 -57q-132 -173 -209 -385q-78 -219 -78 -418q0 -212 78 -428q75 -211 207 -387l-86 -66q-163 174 -275 408q-108 225 -108 463z" />
<glyph unicode=")" d="M307 -180q131 172 207 385q78 219 78 430q0 205 -76 418q-77 212 -209 385l92 57q379 -409 379 -870q0 -238 -108 -463q-110 -229 -277 -408z" />
<glyph unicode="*" d="M248 1151l39 133l227 -96l-20 246h139l-21 -246l228 96l39 -135l-234 -59l160 -185q-72 -59 -115 -88l-127 213l-129 -215l-51 39q-35 24 -64 49l160 187q-25 6 -114 30q-96 26 -117 31z" />
<glyph unicode="+" d="M111 537v131h387v389h131v-389h385v-131h-385v-394h-131v394h-387z" />
<glyph unicode="," d="M319 -317l101 317h-72v256h248v-252l-152 -321h-125z" />
<glyph unicode="-" d="M268 471v154h590v-154h-590z" />
<glyph unicode="." d="M348 0v258h244v-258h-244z" />
<glyph unicode="/" d="M240 -86l514 1571h133l-514 -1571h-133z" />
<glyph unicode="0" d="M166 389v647q0 185 117 293q118 109 280 109q163 0 281 -109q117 -108 117 -293v-647q0 -185 -117 -293t-281 -108q-163 0 -280 108t-117 293zM328 438l440 729q-62 115 -205 115q-105 0 -170 -65q-65 -68 -65 -183v-596zM367 242q65 -99 196 -99q105 0 170 68 q66 69 66 180v570z" />
<glyph unicode="1" d="M221 0v164h328v1077l-311 -160l-17 6v164l326 174h170v-1261h303v-164h-799z" />
<glyph unicode="2" d="M133 0v164l553 698q80 103 80 207q0 88 -55 152q-58 61 -162 61q-98 0 -158 -63q-63 -63 -78 -166l-168 24q24 164 140 260q117 97 268 97q171 0 283 -95q110 -94 110 -266q0 -150 -104 -278l-498 -629h588v-166h-799z" />
<glyph unicode="3" d="M113 297l166 25q18 -85 83 -132t150 -47q120 0 188 80q66 78 66 201q0 117 -70 184q-71 68 -180 68h-102v147h84q108 0 178 64q67 64 67 164q0 103 -63 166q-65 65 -166 65q-79 0 -143 -49q-68 -50 -95 -148l-151 31q28 145 137 232q110 90 252 90q196 0 299 -109 q100 -109 100 -274q0 -86 -47 -172q-45 -84 -139 -125v-8q112 -40 162 -136q49 -98 49 -190q0 -182 -121 -309t-309 -127q-146 0 -256 73q-112 74 -139 236z" />
<glyph unicode="4" d="M100 217v164l490 1044h186l-495 -1050h438v420h166v-420h119v-158h-119v-217h-166v217h-619z" />
<glyph unicode="5" d="M143 297l168 29q34 -187 232 -187q252 0 252 353q0 315 -236 315q-121 0 -203 -131h-166v749h744v-159h-586v-398q109 95 256 95q169 0 264 -115t95 -307v-90q0 -202 -109 -332q-111 -129 -311 -129q-339 0 -400 307z" />
<glyph unicode="6" d="M156 414q0 156 75 303l369 708h180l-317 -620l6 -2q55 24 137 24q160 0 262 -114q101 -116 101 -283q0 -215 -121 -330q-121 -112 -295 -112q-182 0 -289 110q-108 111 -108 316zM324 418q0 -128 63 -203q64 -76 170 -76q102 0 168 78t66 201q0 122 -66 194 q-67 70 -168 70q-92 0 -164 -72q-69 -69 -69 -192z" />
<glyph unicode="7" d="M164 1047v378h797v-174l-494 -1251h-188l497 1260h-444v-213h-168z" />
<glyph unicode="8" d="M129 399q0 103 53 195q53 90 150 141q-170 80 -170 301q0 170 117 287q115 115 284 115q181 0 293 -115q109 -115 109 -289q0 -98 -45 -172q-47 -81 -123 -127q94 -49 147 -139q49 -91 49 -197q0 -186 -125 -299q-126 -114 -309 -114q-191 0 -311 114q-119 113 -119 299z M297 410q0 -115 74 -195q70 -82 188 -82q122 0 193 80t71 197q0 107 -78 182q-78 72 -186 72q-106 0 -184 -72q-78 -75 -78 -182zM330 1044q0 -109 69 -172q71 -65 164 -65t164 65q70 64 70 172q0 112 -70 179q-71 65 -164 65t-164 -65q-69 -66 -69 -179z" />
<glyph unicode="9" d="M156 987q0 222 120 336q119 113 279 113q178 0 297 -113t119 -313q0 -130 -53 -236l-400 -774h-186l332 637l-7 2q-50 -33 -137 -33q-163 0 -264 107q-100 106 -100 274zM324 1008q0 -126 69 -195q69 -72 168 -72q98 0 170 72q68 71 68 195t-66 202q-64 76 -172 76 q-104 0 -170 -78q-67 -76 -67 -200z" />
<glyph unicode=":" d="M457 0v227h211v-227h-211zM457 584v227h211v-227h-211z" />
<glyph unicode=";" d="M453 -231l65 231h-57v227h211v-223l-115 -235h-104zM461 584v227h211v-227h-211z" />
<glyph unicode="&#x3c;" d="M145 543v123l834 415v-145l-668 -332l668 -330v-145z" />
<glyph unicode="=" d="M111 338v137h903v-137h-903zM111 731v137h903v-137h-903z" />
<glyph unicode="&#x3e;" d="M186 129v145l668 330l-668 332v145l834 -415v-123z" />
<glyph unicode="?" d="M137 1040q47 194 168 295q120 99 283 99q179 0 289 -107t110 -268q-3 -77 -33 -144q-27 -63 -59 -104q-16 -23 -88 -98q-63 -67 -70 -76q-30 -38 -45 -70q-22 -49 -22 -88v-102h-178v106q0 139 104 246l37 37q7 8 16 17.5t15.5 16.5t9.5 11q12 16 37 41q23 26 37 47 q3 6 12.5 21.5t13.5 23.5q15 27 21 51q6 21 6 47q0 44 -17 97q-14 45 -71 86q-59 41 -146 41q-110 0 -178 -86q-69 -91 -78 -170zM485 0v201h185v-201h-185z" />
<glyph unicode="@" d="M29 483q0 428 170 678q169 246 440 246q213 0 334 -160q117 -159 117 -440q0 -275 -78 -422q-77 -145 -207 -145q-58 0 -92 34q-38 35 -41 93h-4q-62 -134 -189 -134q-216 0 -219 328q0 105 29 215q26 99 94 176q65 74 156 74q106 0 155 -88h4l9 78h120l-39 -445 q-8 -88 -8 -104q0 -98 56 -98t90 108q35 110 35 326q0 481 -330 481q-211 0 -338 -213q-125 -213 -125 -596q0 -426 346 -426q161 0 305 66l39 -121q-167 -78 -330 -78q-499 0 -499 567zM385 559q0 -201 117 -201q88 0 131 99q41 100 41 233q0 203 -117 203q-91 0 -131 -98 q-41 -103 -41 -236z" />
<glyph unicode="A" d="M8 0l457 1425h197l450 -1425h-190l-111 350h-504l-110 -350h-189zM356 504h408l-94 319q-36 114 -105 371h-8q-1 -4 -5.5 -20t-14.5 -51.5t-19 -69.5q-20 -71 -59 -207z" />
<glyph unicode="B" d="M88 0v1425h526q202 0 312 -96q108 -99 108 -266q0 -95 -53 -184q-51 -85 -162 -127v-7q119 -27 182 -127q66 -104 66 -217q0 -173 -115 -288q-113 -113 -278 -113h-586zM268 166h355q125 0 196 74q68 71 68 176q0 103 -68 174q-72 72 -196 72h-355v-496zM268 817h324 q122 0 194 66q68 65 68 166q0 97 -68 159q-69 60 -194 60h-324v-451z" />
<glyph unicode="C" d="M102 516v393q0 225 129 375q131 152 371 152q166 0 287 -80q115 -78 174 -221l-168 -76q-80 203 -291 203q-156 0 -239 -105q-84 -110 -84 -256v-371q0 -153 86 -262q85 -108 243 -108q110 0 187 57q79 58 116 156l168 -82q-52 -143 -176 -223q-127 -80 -297 -80 q-242 0 -375 151q-131 149 -131 377z" />
<glyph unicode="D" d="M80 0v1425h467q359 0 485 -264q55 -113 55 -424q0 -337 -51 -454q-123 -283 -524 -283h-432zM260 166h279q368 0 368 405v273q0 416 -368 416h-279v-1094z" />
<glyph unicode="E" d="M133 0v1425h873v-165h-693v-441h619v-157h-619v-496h734v-166h-914z" />
<glyph unicode="F" d="M174 0v1425h881v-165h-701v-472h607v-157h-607v-631h-180z" />
<glyph unicode="G" d="M55 498v432q0 217 131 360q134 146 375 146q169 0 299 -80q129 -79 184 -217l-159 -82q-34 91 -125 151q-88 58 -199 58q-173 0 -250 -105q-78 -107 -78 -260v-383q0 -156 82 -260q79 -104 248 -104q160 0 244 96q82 94 82 242v108h-301v164h481v-270q0 -224 -135 -365 q-134 -143 -373 -143q-249 0 -377 143q-129 144 -129 369z" />
<glyph unicode="H" d="M68 0v1425h180v-604h631v604h180v-1425h-180v664h-631v-664h-180z" />
<glyph unicode="I" d="M199 0v162h268v1104h-268v159h737v-159h-289v-1104h289v-162h-737z" />
<glyph unicode="J" d="M113 135l118 133q39 -39 109 -75q65 -35 119 -35q119 0 190 65q72 66 72 234v807h-531v159h711v-968q0 -247 -119 -357t-317 -110q-220 0 -352 147z" />
<glyph unicode="K" d="M82 0v1425h182v-766l6 3l590 763h197l-416 -542l481 -883h-200l-394 735l-266 -346v-389h-180z" />
<glyph unicode="L" d="M205 0v1425h180v-1259h700v-166h-880z" />
<glyph unicode="M" d="M76 0v1425h190l299 -757h6l295 757h187v-1425h-181v1034l-6 -4l-223 -567h-158l-223 571l-6 -4v-1030h-180z" />
<glyph unicode="N" d="M111 0v1425h184l539 -1060l6 4v1056h178v-1425h-182l-539 1053l-6 -2v-1051h-180z" />
<glyph unicode="O" d="M55 516v393q0 226 131 375q134 152 375 152q232 0 371 -148q137 -146 137 -379v-393q0 -242 -137 -385t-371 -143q-247 0 -377 151q-129 150 -129 377zM233 526q0 -157 82 -264q78 -106 248 -106q161 0 244 102q82 101 82 268v379q0 154 -88 258q-89 103 -238 103 q-170 0 -250 -103q-80 -106 -80 -258v-379z" />
<glyph unicode="P" d="M127 0v1425h471q208 0 338 -106q133 -109 133 -326q0 -168 -113 -293q-115 -127 -333 -127h-316v-573h-180zM307 739h303q141 0 205 76q66 78 66 184q0 129 -72 195q-75 66 -207 66h-295v-521z" />
<glyph unicode="Q" d="M55 516v393q0 226 131 375q134 152 375 152q232 0 371 -148q137 -146 137 -379v-393q0 -236 -133 -381l108 -119l-118 -106l-119 131q-109 -53 -246 -53q-247 0 -377 151q-129 150 -129 377zM233 526q0 -157 82 -264q78 -106 248 -106q71 0 123 18l-133 150l119 106 l143 -162q74 100 74 258v379q0 154 -88 258q-89 103 -238 103q-170 0 -250 -103q-80 -106 -80 -258v-379z" />
<glyph unicode="R" d="M119 0v1425h540q185 0 297 -112q115 -115 115 -289q0 -145 -84 -258q-80 -107 -223 -143l305 -623h-197l-290 604h-283v-604h-180zM299 762h319q134 0 203 69q70 70 70 193q0 114 -72 180q-70 64 -192 64h-328v-506z" />
<glyph unicode="S" d="M47 188l109 138q176 -170 426 -170q139 0 223 63t84 189q0 198 -318 266q-72 15 -108 26q-38 9 -101 31q-64 22 -96 47q-36 26 -73 66q-40 40 -54 92q-16 56 -16 121q0 179 133 282q131 101 322 101q282 0 444 -137l-90 -144q-168 113 -342 113q-138 0 -215 -53 q-76 -52 -76 -152q0 -102 80 -149q84 -49 303 -103q75 -18 137 -43q55 -23 121 -70q64 -48 96 -120q35 -78 35 -176q0 -191 -135 -302q-137 -110 -361 -110q-140 0 -280 51q-144 50 -248 143z" />
<glyph unicode="T" d="M72 1268v157h991v-157h-406v-1268h-180v1268h-405z" />
<glyph unicode="U" d="M78 520v905h178v-890q0 -159 72 -269q69 -106 237 -106q305 0 305 375v890h181v-905q0 -243 -123 -387q-124 -145 -365 -145q-255 0 -368 149q-117 147 -117 383z" />
<glyph unicode="V" d="M23 1425h186l354 -1204h10l345 1204h186l-442 -1425h-197z" />
<glyph unicode="W" d="M37 1425h180l90 -1040h8l166 604h162l162 -590h8l107 1026h170l-164 -1425h-166l-197 739h-8l-203 -739h-172z" />
<glyph unicode="X" d="M25 0l438 731l-410 694h201l307 -544l309 544h201l-409 -694l438 -731h-201l-338 582l-336 -582h-200z" />
<glyph unicode="Y" d="M49 1425h191l198 -395l127 -272l133 284l193 383h186l-428 -860v-565h-172v565z" />
<glyph unicode="Z" d="M109 0v158l698 1110h-657v157h864v-143l-703 -1116h723v-166h-925z" />
<glyph unicode="[" d="M451 -215v1645h346v-115h-193v-1415h193v-115h-346z" />
<glyph unicode="\" d="M240 1485h133l514 -1571h-133z" />
<glyph unicode="]" d="M350 -100h191v1415h-191v115h344v-1645h-344v115z" />
<glyph unicode="^" d="M86 672l414 751h123l415 -751h-145l-332 604l-330 -604h-145z" />
<glyph unicode="_" d="M51 -141h1024v-123h-1024v123z" />
<glyph unicode="`" d="M406 1481l165 51l148 -363l-109 -41z" />
<glyph unicode="a" d="M123 289q0 126 84 213q83 86 239 86h320v114q0 166 -234 166q-168 0 -241 -88l-107 113q115 133 342 133q410 0 410 -328v-698h-170v88l-2 2q-27 -46 -105 -74q-79 -28 -176 -28q-168 0 -264 84t-96 217zM283 299q0 -76 57 -115q55 -43 164 -43q262 0 262 189v119h-279 q-100 0 -151 -39q-53 -41 -53 -111z" />
<glyph unicode="b" d="M158 0v1487h168v-586h4q113 125 276 125q354 0 363 -504q0 -534 -363 -534q-194 0 -276 125h-4v-113h-168zM326 508q0 -367 233 -367q77 0 127 33q52 36 72 94q21 58 30 115q7 61 7 125q0 72 -9 127q-9 53 -30 108t-72 86q-56 29 -125 29q-233 0 -233 -350z" />
<glyph unicode="c" d="M193 502q0 260 133 393q131 131 323 131q188 0 332 -141l-109 -123q-92 102 -231 102q-133 0 -207 -92t-74 -266q0 -178 78 -268q79 -91 224 -91q57 0 124 31q60 28 103 74l110 -121q-143 -143 -352 -143q-193 0 -323 127q-131 125 -131 387z" />
<glyph unicode="d" d="M156 498q0 528 395 528q169 0 246 -102h4v563h168v-1487h-168v98l-6 2q-118 -112 -285 -112q-105 0 -176 41q-75 41 -111 112q-35 68 -51 160q-16 88 -16 197zM332 508q0 -47 4 -109q3 -47 18 -96q15 -50 39 -80q22 -31 68 -49q41 -20 102 -20q238 0 238 354q0 74 -8 121 q-10 56 -29 110q-19 50 -70 88q-51 31 -123 31t-125 -29q-52 -29 -73 -86q-24 -55 -33 -108q-8 -49 -8 -127z" />
<glyph unicode="e" d="M158 504q0 146 39 250q36 104 102 164q60 54 135 83q70 27 148 27q172 0 290 -121q115 -121 115 -325v-131h-653v-17q0 -128 69 -209q67 -82 193 -82q118 0 229 97l109 -121q-137 -131 -346 -131q-82 0 -156 22q-68 20 -135 78q-65 53 -102 160t-37 256zM334 592h477 q-6 137 -70 207q-63 69 -168 69q-102 0 -167 -71q-63 -72 -72 -205z" />
<glyph unicode="f" d="M96 868v148h365v143q0 348 364 348q157 0 262 -63l-69 -144q-94 52 -203 52q-184 0 -184 -189v-147h426v-148h-426v-868h-170v868h-365z" />
<glyph unicode="g" d="M135 485q0 95 8 158q9 72 33 145q22 68 66 125q39 50 108 84q73 31 164 31q81 0 148 -33q73 -36 112 -92h4v113h170v-998q0 -217 -125 -327q-126 -111 -315 -111q-205 0 -328 117l101 137q45 -38 108 -65q65 -27 123 -27q116 0 193 68q73 67 73 186v119h-4 q-110 -125 -276 -125q-363 0 -363 495zM309 508q0 -86 8 -135q5 -50 29 -109q21 -52 72 -80q45 -26 123 -26q237 0 237 350q0 68 -6 117q-6 47 -27 108q-22 64 -71 96q-50 33 -129 33q-74 0 -125 -31q-53 -30 -74 -88q-24 -67 -29 -110q-8 -47 -8 -125z" />
<glyph unicode="h" d="M160 0v1487h168v-598h6q107 137 282 137q151 0 252 -90q97 -94 97 -262v-674h-168v608q0 125 -52 189q-51 63 -172 63q-104 0 -174 -67q-71 -71 -71 -185v-608h-168z" />
<glyph unicode="i" d="M238 866v148h454v-867h271v-147h-723v147h284v719h-286zM487 1221v204h205v-204h-205z" />
<glyph unicode="j" d="M244 866v148h497v-1102q0 -149 -67 -231t-240 -82h-129v153h107q92 0 125 33q34 34 34 141v940h-327zM537 1221v204h204v-204h-204z" />
<glyph unicode="k" d="M188 0v1487h168v-961h6l439 490h198l-346 -383l418 -633h-194l-336 510l-185 -203v-307h-168z" />
<glyph unicode="l" d="M238 1339v148h454v-1340h271v-147h-723v147h284v1192h-286z" />
<glyph unicode="m" d="M88 0v1016h158v-88h8q67 98 170 98q126 0 164 -127h8q77 127 211 127q233 0 233 -293v-733h-161v702q0 166 -103 166q-129 0 -129 -239v-629h-158v670q0 92 -24 145q-24 49 -90 49q-125 0 -125 -209v-655h-162z" />
<glyph unicode="n" d="M160 0v1018h168v-129h6q53 65 131 102q78 35 162 35q149 0 245 -90q93 -93 93 -262v-674h-168v590q0 135 -47 203q-46 67 -156 67q-125 0 -195 -67q-71 -68 -71 -185v-608h-168z" />
<glyph unicode="o" d="M143 504q0 191 52 295q55 112 149 168q96 57 225 57q236 0 344 -170q70 -107 70 -311q0 -264 -63 -369q-107 -186 -365 -186q-231 0 -336 153q-76 113 -76 363zM311 502q0 -157 29 -226q58 -135 217 -135q185 0 240 181q16 59 16 215q0 126 -27 190q-59 145 -221 145 q-156 0 -217 -137q-34 -69 -37 -233z" />
<glyph unicode="p" d="M156 -406v1422h168v-113l6 -2q107 125 276 125q363 0 363 -510q0 -528 -396 -528q-157 0 -245 102h-4v-496h-168zM324 506q0 -74 8 -121q9 -54 30 -109q21 -58 70 -88q43 -32 121 -32q75 0 127 30q49 27 74 84q21 56 30 111q9 52 9 125q0 71 -2 98q-2 29 -17 94 q-12 44 -37 84q-25 36 -67 56q-49 22 -107 22q-239 0 -239 -354z" />
<glyph unicode="q" d="M150 492q0 534 393 534q163 0 245 -129h5v119h168v-1419h-168v516h-5q-113 -125 -284 -125q-345 0 -354 504zM324 506q0 -78 8 -125q9 -55 30 -111q22 -57 74 -84q50 -30 123 -30q234 0 234 350q0 366 -234 366q-79 0 -125 -32q-54 -35 -74 -92q-22 -65 -28 -115 q-8 -49 -8 -127z" />
<glyph unicode="r" d="M348 0v1016h168v-129h8q103 139 287 139q134 0 223 -63l-76 -162q-82 61 -192 61q-116 0 -182 -63q-68 -65 -68 -185v-614h-168z" />
<glyph unicode="s" d="M152 135l102 129q143 -125 330 -125q96 0 161 41q62 41 62 117q0 71 -62 106q-60 34 -147 46q-88 12 -174 30q-89 18 -150 82q-61 61 -61 172q0 140 106 215q110 78 265 78q218 0 362 -111l-90 -135q-137 90 -285 90q-89 0 -141 -34q-53 -38 -53 -95q0 -66 63 -100 q55 -31 215 -53q148 -22 234 -84q86 -65 86 -203q0 -141 -111 -227q-112 -86 -289 -86q-253 0 -423 147z" />
<glyph unicode="t" d="M139 874v142h277v287h166v-287h462v-142h-462v-526q0 -98 39 -151q40 -58 145 -58q135 0 231 84l84 -133q-140 -104 -325 -104q-344 0 -344 344v544h-273z" />
<glyph unicode="u" d="M160 342v674h168v-610q0 -141 49 -199q51 -60 184 -60q101 0 170 72q66 72 66 187v610h168v-1016h-168v115h-6q-100 -127 -279 -127q-163 0 -258 86q-94 85 -94 268z" />
<glyph unicode="v" d="M113 1016h184l147 -443l58 -163q39 -114 61 -174h8l107 335l147 445h187l-375 -1016h-148z" />
<glyph unicode="w" d="M33 1016h172l125 -744h8l156 498h155l164 -498h10l111 744h166l-185 -1016h-174l-168 530h-12l-166 -530h-172z" />
<glyph unicode="x" d="M121 0l346 520l-330 496h201l225 -375l225 375h203l-332 -498l347 -518h-203l-240 387l-239 -387h-203z" />
<glyph unicode="y" d="M115 1016h186l162 -461q82 -233 106 -317h9l100 315l158 463h176l-398 -1122q-65 -181 -149 -238q-86 -59 -217 -59h-74v147h72q80 0 129 37q51 42 80 137l32 102z" />
<glyph unicode="z" d="M186 0v139l555 729h-512v148h709v-146l-551 -714h569v-156h-770z" />
<glyph unicode="{" d="M319 555v104q78 9 119 86t41 181v278q0 100 53 162q53 59 136 59h139v-110h-84q-94 0 -94 -178v-256q0 -117 -51 -183q-53 -71 -103 -86v-6q49 -15 103 -84q51 -68 51 -180v-266q0 -178 94 -178h84v-109h-139q-83 0 -136 59q-53 62 -53 160v285q0 113 -41 184 q-39 69 -119 78z" />
<glyph unicode="|" d="M496 -332v1798h133v-1798h-133z" />
<glyph unicode="}" d="M319 -102h87q50 0 71 53q23 57 23 125v266q0 112 53 180q55 70 100 84v6q-45 14 -100 84q-53 68 -53 185v256q0 49 -2 63q-3 18 -9 55q-10 32 -28 45q-21 15 -55 15h-87v102h136q94 0 145 -57q49 -58 49 -156v-278q0 -107 41 -181q41 -77 117 -86v-104q-77 -9 -117 -78 q-41 -71 -41 -184v-285q0 -98 -53 -160q-53 -59 -135 -59h-142v109z" />
<glyph unicode="~" d="M100 561q105 176 275 176q65 0 192 -65q127 -68 183 -68q32 0 61 19q22 12 45 39q21 24 51 65l117 -88q-58 -95 -123 -141q-62 -45 -153 -45q-54 0 -185 67q-135 66 -190 66q-50 0 -80 -23q-24 -17 -76 -82z" />
<glyph unicode="&#xa0;" />
<glyph unicode="&#xa1;" d="M465 -422l33 1063h139l35 -1063h-207zM465 803v201h197v-201h-197z" />
<glyph unicode="&#xa2;" d="M166 506q0 235 108 364q111 129 279 150v211h92v-205q178 -9 313 -141l-108 -123q-87 96 -205 102v-717q117 6 205 105l111 -121q-134 -134 -316 -143v-228h-92v234q-169 21 -279 149q-108 126 -108 363zM334 506q0 -300 219 -350v700q-219 -50 -219 -350z" />
<glyph unicode="&#xa3;" d="M139 0v131q169 224 178 471h-178v139h142l-7.5 25t-12.5 37.5t-13 38.5q-26 70 -37 121q-14 49 -14 104q0 151 104 258q106 109 274 109q151 0 236 -39q89 -41 176 -156l-147 -104q-95 141 -269 141q-66 0 -125 -53t-59 -156q0 -68 39 -178q37 -111 43 -148h326v-139 h-312q-9 -272 -125 -446h627v-156h-846z" />
<glyph unicode="&#xa4;" d="M80 274l141 138q-78 122 -78 241q0 120 78 242l-141 139l100 101l139 -140q122 78 244 78t244 -78l137 140l100 -103l-139 -137q78 -122 78 -242q0 -119 -78 -241q57 -54 139 -136l-100 -102l-137 139q-115 -80 -244 -80t-244 80l-139 -139l-30 31l-39 41zM289 653 q0 -112 80 -192t192 -80q115 0 195 80t80 192q0 115 -80 195t-195 80q-112 0 -192 -80t-80 -195z" />
<glyph unicode="&#xa5;" d="M90 1425h178l293 -677h10l283 677h180l-309 -684h244v-110h-801v110h242zM168 406v110h801v-110h-320v-406h-164v406h-317z" />
<glyph unicode="&#xa6;" d="M496 -332v836h133v-836h-133zM496 623v843h133v-843h-133z" />
<glyph unicode="&#xa7;" d="M160 4l96 107q115 -121 291 -121q237 0 237 182q0 69 -61 115q-59 42 -191 88q-175 56 -262 131q-84 72 -84 201q0 118 97 223q-80 86 -80 192q0 140 104 228t262 88q214 0 355 -123l-93 -119q-125 96 -266 96q-95 0 -147 -43q-53 -44 -53 -114q0 -69 61 -109 q66 -47 149 -72q80 -24 179 -63q88 -37 149 -113q62 -77 62 -194q0 -127 -86 -222q69 -97 69 -188q0 -146 -108 -237q-113 -93 -293 -93q-113 0 -217 43q-104 45 -170 117zM336 719q0 -53 49 -96q50 -47 109 -68q132 -48 143 -51q81 -26 121 -49q59 50 59 131t-61 121 q-57 37 -213 92q-47 15 -131 51q-76 -49 -76 -131z" />
<glyph unicode="&#xa8;" d="M289 1223v180h180v-180h-180zM657 1223v180h181v-180h-181z" />
<glyph unicode="&#xa9;" d="M78 528v359q0 228 131 377q133 151 375 151q232 0 370 -147t138 -381v-359q0 -241 -138 -385q-137 -143 -370 -143q-246 0 -377 152q-129 150 -129 376zM193 541q0 -184 96 -312q94 -125 297 -125q191 0 291 121q98 119 98 316v342q0 184 -105 307q-109 121 -284 121 q-202 0 -297 -121q-96 -125 -96 -307v-342zM279 586v217q0 140 81 233q83 92 232 92q108 0 182 -51q76 -53 111 -141l-113 -49q-52 125 -178 125q-92 0 -143 -60q-52 -58 -52 -155v-203q0 -97 52 -158q51 -63 143 -63q129 0 178 135l115 -53q-83 -197 -295 -197 q-150 0 -232 94q-81 93 -81 234z" />
<glyph unicode="&#xaa;" d="M276 768q0 83 60 143q58 58 170 58h209v63q0 96 -150 96q-108 0 -164 -59l-86 84q84 96 246 96q289 0 289 -219v-459h-135v86q-70 -94 -193 -94q-118 0 -182 55t-64 150zM406 774q0 -92 139 -92q170 0 170 111v65h-180q-129 0 -129 -84z" />
<glyph unicode="&#xab;" d="M176 475l260 381h160l-254 -381l254 -381h-160zM528 475l260 381h160l-252 -381l252 -381h-160z" />
<glyph unicode="&#xac;" d="M111 537v131h903v-525h-133v394h-770z" />
<glyph unicode="&#xad;" d="M268 471v154h590v-154h-590z" />
<glyph unicode="&#xae;" d="M135 1008q0 184 123 307t305 123t305 -123t123 -307q0 -183 -123 -303q-124 -121 -305 -121t-305 121q-123 120 -123 303zM217 1008q0 -151 100 -248q98 -101 246 -101q147 0 248 101q98 98 98 248q0 151 -98 252q-100 100 -248 100q-149 0 -246 -100 q-100 -100 -100 -252zM403 760v495h205q66 0 107 -38q41 -41 41 -103q0 -97 -97 -135l115 -219h-96l-105 207h-86v-207h-84zM487 1044h107q35 0 57 19q21 18 21 51q0 66 -76 66h-109v-136z" />
<glyph unicode="&#xaf;" d="M289 1229v153h549v-153h-549z" />
<glyph unicode="&#xb0;" d="M289 1163q0 116 82 195q80 80 192 80t195 -80q80 -80 80 -195q0 -114 -80 -194q-83 -80 -195 -80t-192 80q-82 79 -82 194zM399 1163q0 -67 50 -114q47 -50 114 -50q70 0 117 50q47 47 47 114t-47 117q-47 47 -117 47q-67 0 -114 -47q-50 -50 -50 -117z" />
<glyph unicode="&#xb1;" d="M121 0v131h883v-131h-883zM121 596v131h377v356h131v-356h375v-131h-375v-356h-131v356h-377z" />
<glyph unicode="&#xb2;" d="M291 756v116l354 410q49 55 49 107q0 45 -32 73q-36 31 -93 31q-50 0 -88 -35q-40 -37 -49 -96l-135 18q15 105 92 170q76 64 182 64q115 0 191 -58q74 -59 74 -165q0 -93 -70 -172l-297 -338h356v-125h-534z" />
<glyph unicode="&#xb3;" d="M287 954l133 19q24 -107 133 -107q70 0 111 41q36 39 36 107q0 66 -38 98q-41 35 -103 35h-78v113h66q64 0 104 34q39 33 39 84q0 49 -35 84q-33 33 -98 33q-41 0 -84 -29q-39 -26 -61 -88l-113 37q27 89 100 146q70 55 166 55q125 0 193 -68q67 -67 67 -157 q0 -57 -32 -103q-35 -50 -91 -76v-8q68 -16 101 -69q35 -56 35 -125q0 -109 -78 -187q-78 -75 -199 -75q-100 0 -176 49q-77 50 -98 157z" />
<glyph unicode="&#xb4;" d="M406 1169l147 363l166 -51l-205 -353z" />
<glyph unicode="&#xb5;" d="M168 -410v1426h168v-610q0 -123 55 -187q51 -63 180 -63q104 0 168 67q66 69 66 183v610h168v-1016h-168v115h-6q-100 -127 -281 -127q-97 0 -176 55l-6 -2v-451h-168z" />
<glyph unicode="&#xb6;" d="M82 1040q0 163 96 285q94 119 271 119h595v-133h-88v-1479h-151v1479h-174v-1479h-154v832h-80q-150 0 -231 112q-84 116 -84 264z" />
<glyph unicode="&#xb7;" d="M444 424v258h244v-258h-244z" />
<glyph unicode="&#xb8;" d="M362 -385l35 88q73 -31 144 -31q42 0 69 21t27 53q0 39 -33 59q-38 23 -86 23h-29l-40 43l65 211l92 -8l-49 -154q106 -6 156 -59q49 -52 49 -113q0 -66 -53 -119q-51 -51 -168 -51q-98 0 -179 37z" />
<glyph unicode="&#xb9;" d="M336 756v127h219v583l-205 -106l-14 8v121l225 121h129v-727h197v-127h-551z" />
<glyph unicode="&#xba;" d="M266 905q0 154 78 250q77 92 219 92q135 0 213 -90q76 -91 76 -254q0 -150 -70 -244q-72 -96 -223 -96q-293 0 -293 342zM401 911q0 -114 37 -172q37 -57 121 -57q162 0 162 233q0 215 -158 215q-162 0 -162 -219z" />
<glyph unicode="&#xbb;" d="M176 94l252 381l-252 381h160l260 -381l-260 -381h-160zM528 94l254 381l-254 381h160l260 -381l-260 -381h-160z" />
<glyph unicode="&#xbc;" d="M63 -35l871 1495h127l-873 -1495h-125zM106 1223v123l152 79h115v-702h-123v573zM569 102v99l260 504h134l-254 -494h182v197h121v-197h57v-109h-57v-102h-121v102h-322z" />
<glyph unicode="&#xbd;" d="M41 -35l870 1495h127l-872 -1495h-125zM129 1223v123l152 79h114v-702h-123v573zM614 0v104l295 338q41 47 41 86q0 37 -26 60q-27 24 -74 24q-45 0 -72 -30q-30 -30 -39 -80l-118 16q15 91 79 146t150 55q98 0 162 -49q61 -49 61 -140q0 -74 -59 -145l-240 -272h291 v-113h-451z" />
<glyph unicode="&#xbe;" d="M51 889l119 14q21 -86 106 -86q55 0 84 33q31 36 31 84q0 49 -29 78q-29 26 -81 26h-68v101h57q53 0 82 26q31 25 31 66q0 42 -27 69t-77 27q-35 0 -62 -24q-28 -25 -43 -68l-119 14q22 81 84 131q64 52 140 52q112 0 172 -54q55 -52 55 -137q0 -43 -27 -84 q-26 -41 -86 -63v-7q63 -15 94 -63q29 -53 29 -96q0 -90 -67 -154q-71 -65 -175 -65q-77 0 -139 45q-63 45 -84 135zM100 -35l871 1495h127l-873 -1495h-125zM569 102v99l260 504h134l-254 -494h182v197h121v-197h57v-109h-57v-102h-121v102h-322z" />
<glyph unicode="&#xbf;" d="M137 -53q3 74 33 145q27 60 59 105q15 20 88 96q63 67 70 76q31 40 45 71q23 48 23 86v103h178v-107q0 -138 -105 -246q-16 -16 -34 -36q-35 -35 -41 -43l-37 -43q-26 -26 -37 -48q-12 -18 -27 -45q-16 -30 -22 -49q-6 -24 -6 -49q0 -46 16 -96q14 -45 74 -86 q56 -41 143 -41q110 0 178 86q69 91 78 170l174 -31q-46 -193 -166 -295q-122 -98 -284 -98q-180 0 -289 106q-111 108 -111 269zM455 805v201h184v-201h-184z" />
<glyph unicode="&#xc0;" d="M8 0l457 1425h197l450 -1425h-190l-111 350h-504l-110 -350h-189zM287 1763l121 125l303 -250l-76 -86zM356 504h408l-94 319q-36 114 -105 371h-8q-1 -4 -5.5 -20t-14.5 -51.5t-19 -69.5q-20 -71 -59 -207z" />
<glyph unicode="&#xc1;" d="M8 0l457 1425h197l450 -1425h-190l-111 350h-504l-110 -350h-189zM356 504h408l-94 319q-36 114 -105 371h-8q-1 -4 -5.5 -20t-14.5 -51.5t-19 -69.5q-20 -71 -59 -207zM410 1638l303 250l121 -125l-349 -211z" />
<glyph unicode="&#xc2;" d="M8 0l457 1425h197l450 -1425h-190l-111 350h-504l-110 -350h-189zM207 1597l307 314h109l292 -309l-81 -80l-273 217l-274 -219zM356 504h408l-94 319q-36 114 -105 371h-8q-1 -4 -5.5 -20t-14.5 -51.5t-19 -69.5q-20 -71 -59 -207z" />
<glyph unicode="&#xc3;" d="M8 0l457 1425h197l450 -1425h-190l-111 350h-504l-110 -350h-189zM197 1630q42 89 100 135q59 47 121 47q57 0 147 -47q94 -49 127 -49q63 0 125 92l107 -59q-86 -182 -219 -182q-54 0 -144 43t-129 43q-62 0 -129 -82zM356 504h408l-94 319q-36 114 -105 371h-8 q-1 -4 -5.5 -20t-14.5 -51.5t-19 -69.5q-20 -71 -59 -207z" />
<glyph unicode="&#xc4;" d="M8 0l457 1425h197l450 -1425h-190l-111 350h-504l-110 -350h-189zM285 1577v180h180v-180h-180zM356 504h408l-94 319q-36 114 -105 371h-8q-1 -4 -5.5 -20t-14.5 -51.5t-19 -69.5q-20 -71 -59 -207zM653 1577v180h181v-180h-181z" />
<glyph unicode="&#xc5;" d="M8 0l457 1425h197l450 -1425h-190l-111 350h-504l-110 -350h-189zM356 504h408l-94 319q-36 114 -105 371h-8q-1 -4 -5.5 -20t-14.5 -51.5t-19 -69.5q-20 -71 -59 -207zM360 1663q0 83 60 143q58 58 143 58q84 0 144 -60q57 -57 57 -141t-57 -141q-60 -60 -144 -60 q-83 0 -143 60t-60 141zM451 1663q0 -48 32 -80q33 -33 80 -33t80 33t33 80t-33 80t-80 33t-80 -33q-32 -32 -32 -80z" />
<glyph unicode="&#xc6;" d="M4 0l490 1425h600v-165h-308v-439h281v-157h-281v-498h332v-166h-514v420h-274l-137 -420h-189zM381 573h223v654h-8z" />
<glyph unicode="&#xc7;" d="M102 516v393q0 225 129 375q131 152 371 152q166 0 287 -80q115 -78 174 -221l-168 -76q-80 203 -291 203q-156 0 -239 -105q-84 -110 -84 -256v-371q0 -153 86 -262q85 -108 243 -108q110 0 187 57q79 58 116 156l168 -82q-52 -143 -176 -223q-127 -80 -297 -80h-14 l-21 -68q106 -6 156 -59q49 -52 49 -113q0 -66 -53 -119q-51 -51 -168 -51q-97 0 -178 37l35 88q73 -31 143 -31q43 0 70 21q26 20 26 53q0 40 -32 59q-38 23 -86 23h-29l-41 43l39 125q-197 35 -297 176q-105 144 -105 344z" />
<glyph unicode="&#xc8;" d="M133 0v1425h873v-165h-693v-441h619v-157h-619v-496h734v-166h-914zM295 1763l121 125l303 -250l-76 -86z" />
<glyph unicode="&#xc9;" d="M133 0v1425h873v-165h-693v-441h619v-157h-619v-496h734v-166h-914zM418 1638l303 250l121 -125l-348 -211z" />
<glyph unicode="&#xca;" d="M133 0v1425h873v-165h-693v-441h619v-157h-619v-496h734v-166h-914zM215 1597l307 314h109l293 -309l-82 -80l-273 217l-274 -219z" />
<glyph unicode="&#xcb;" d="M133 0v1425h873v-165h-693v-441h619v-157h-619v-496h734v-166h-914zM289 1577v180h180v-180h-180zM657 1577v180h181v-180h-181z" />
<glyph unicode="&#xcc;" d="M199 0v162h268v1104h-268v159h737v-159h-289v-1104h289v-162h-737zM283 1763l120 125l304 -250l-76 -86z" />
<glyph unicode="&#xcd;" d="M199 0v162h268v1104h-268v159h737v-159h-289v-1104h289v-162h-737zM406 1638l303 250l120 -125l-348 -211z" />
<glyph unicode="&#xce;" d="M199 0v162h268v1104h-268v159h737v-159h-289v-1104h289v-162h-737zM207 1591l307 262h109l292 -258l-61 -79l-293 176l-295 -179z" />
<glyph unicode="&#xcf;" d="M199 0v162h268v1104h-268v159h737v-159h-289v-1104h289v-162h-737zM289 1577v180h180v-180h-180zM657 1577v180h181v-180h-181z" />
<glyph unicode="&#xd0;" d="M20 672v129h60v624h467q359 0 485 -264q55 -113 55 -424q0 -337 -51 -454q-123 -283 -524 -283h-432v672h-60zM260 166h279q368 0 368 405v273q0 416 -368 416h-279v-459h299v-129h-299v-506z" />
<glyph unicode="&#xd1;" d="M111 0v1425h184l539 -1060l6 4v1056h178v-1425h-182l-539 1053l-6 -2v-1051h-180zM205 1597q41 86 100 136q59 47 121 47q51 0 147 -47q95 -50 127 -50q62 0 125 93l107 -60q-86 -182 -219 -182q-54 0 -144 43t-129 43q-62 0 -129 -82z" />
<glyph unicode="&#xd2;" d="M55 516v393q0 226 131 375q134 152 375 152q232 0 371 -148q137 -146 137 -379v-393q0 -242 -137 -385t-371 -143q-247 0 -377 151q-129 150 -129 377zM233 526q0 -157 82 -264q78 -106 248 -106q161 0 244 102q82 101 82 268v379q0 154 -88 258q-89 103 -238 103 q-170 0 -250 -103q-80 -106 -80 -258v-379zM287 1763l121 125l303 -250l-76 -86z" />
<glyph unicode="&#xd3;" d="M55 516v393q0 226 131 375q134 152 375 152q232 0 371 -148q137 -146 137 -379v-393q0 -242 -137 -385t-371 -143q-247 0 -377 151q-129 150 -129 377zM233 526q0 -157 82 -264q78 -106 248 -106q161 0 244 102q82 101 82 268v379q0 154 -88 258q-89 103 -238 103 q-170 0 -250 -103q-80 -106 -80 -258v-379zM410 1638l303 250l121 -125l-349 -211z" />
<glyph unicode="&#xd4;" d="M55 516v393q0 226 131 375q134 152 375 152q232 0 371 -148q137 -146 137 -379v-393q0 -242 -137 -385t-371 -143q-247 0 -377 151q-129 150 -129 377zM207 1597l307 314h109l292 -309l-81 -80l-273 217l-274 -219zM233 526q0 -157 82 -264q78 -106 248 -106 q161 0 244 102q82 101 82 268v379q0 154 -88 258q-89 103 -238 103q-170 0 -250 -103q-80 -106 -80 -258v-379z" />
<glyph unicode="&#xd5;" d="M55 516v393q0 226 131 375q134 152 375 152q232 0 371 -148q137 -146 137 -379v-393q0 -242 -137 -385t-371 -143q-247 0 -377 151q-129 150 -129 377zM197 1630q42 89 100 135q59 47 121 47q57 0 147 -47q94 -49 127 -49q63 0 125 92l107 -59q-86 -182 -219 -182 q-54 0 -144 43t-129 43q-62 0 -129 -82zM233 526q0 -157 82 -264q78 -106 248 -106q161 0 244 102q82 101 82 268v379q0 154 -88 258q-89 103 -238 103q-170 0 -250 -103q-80 -106 -80 -258v-379z" />
<glyph unicode="&#xd6;" d="M55 516v393q0 226 131 375q134 152 375 152q232 0 371 -148q137 -146 137 -379v-393q0 -242 -137 -385t-371 -143q-247 0 -377 151q-129 150 -129 377zM233 526q0 -157 82 -264q78 -106 248 -106q161 0 244 102q82 101 82 268v379q0 154 -88 258q-89 103 -238 103 q-170 0 -250 -103q-80 -106 -80 -258v-379zM274 1577v180h181v-180h-181zM643 1577v180h180v-180h-180z" />
<glyph unicode="&#xd7;" d="M135 895l92 92l334 -332l330 330l92 -92l-330 -332l336 -336l-92 -92l-336 336l-332 -332l-92 92l332 332z" />
<glyph unicode="&#xd8;" d="M43 55l96 142q-84 141 -84 319v393q0 226 131 375q134 152 375 152q206 0 340 -119l78 115l88 -60l-92 -137q94 -134 94 -326v-393q0 -242 -137 -385t-371 -143q-221 0 -352 125l-80 -117zM233 526q0 -83 23 -157l543 796q-88 101 -236 101q-170 0 -250 -103 q-80 -106 -80 -258v-379zM311 264q89 -108 252 -108q161 0 244 102q82 101 82 268v379q0 86 -31 162z" />
<glyph unicode="&#xd9;" d="M78 520v905h178v-890q0 -159 72 -269q69 -106 237 -106q305 0 305 375v890h181v-905q0 -243 -123 -387q-124 -145 -365 -145q-255 0 -368 149q-117 147 -117 383zM289 1763l121 125l303 -250l-76 -86z" />
<glyph unicode="&#xda;" d="M78 520v905h178v-890q0 -159 72 -269q69 -106 237 -106q305 0 305 375v890h181v-905q0 -243 -123 -387q-124 -145 -365 -145q-255 0 -368 149q-117 147 -117 383zM412 1638l303 250l121 -125l-349 -211z" />
<glyph unicode="&#xdb;" d="M78 520v905h178v-890q0 -159 72 -269q69 -106 237 -106q305 0 305 375v890h181v-905q0 -243 -123 -387q-124 -145 -365 -145q-255 0 -368 149q-117 147 -117 383zM205 1591l307 262h109l292 -258l-61 -79l-293 176l-295 -179z" />
<glyph unicode="&#xdc;" d="M78 520v905h178v-890q0 -159 72 -269q69 -106 237 -106q305 0 305 375v890h181v-905q0 -243 -123 -387q-124 -145 -365 -145q-255 0 -368 149q-117 147 -117 383zM285 1577v180h180v-180h-180zM653 1577v180h181v-180h-181z" />
<glyph unicode="&#xdd;" d="M49 1425h191l198 -395l127 -272l133 284l193 383h186l-428 -860v-565h-172v565zM412 1638l303 250l121 -125l-349 -211z" />
<glyph unicode="&#xde;" d="M68 0v1423h180v-262h342q196 0 334 -108q137 -107 137 -324q0 -161 -121 -291q-123 -129 -322 -129h-370v-309h-180zM248 475h354q130 0 201 80q69 75 69 180q0 129 -75 195q-77 65 -203 65h-346v-520z" />
<glyph unicode="&#xdf;" d="M154 0v1098q0 183 108 291q106 106 289 106q170 0 270 -106q101 -107 101 -248q0 -92 -41 -176q-40 -85 -121 -123q107 -27 160 -133q51 -102 51 -236q0 -93 -21 -172q-20 -80 -67 -151q-48 -73 -129 -113q-82 -43 -193 -43h-78v145h74q125 0 180 94q56 95 56 244 q0 115 -54 203q-56 86 -164 86h-71v145h63q83 0 135 64t52 149q-3 100 -54 162q-52 64 -159 64q-117 0 -168 -72q-51 -71 -51 -172v-1106h-168z" />
<glyph unicode="&#xe0;" d="M123 289q0 126 84 213q83 86 239 86h320v114q0 166 -234 166q-168 0 -241 -88l-107 113q115 133 342 133q410 0 410 -328v-698h-170v88l-2 2q-27 -46 -105 -74q-79 -28 -176 -28q-168 0 -264 84t-96 217zM252 1354l121 125l303 -250l-76 -86zM283 299q0 -76 57 -115 q55 -43 164 -43q262 0 262 189v119h-279q-100 0 -151 -39q-53 -41 -53 -111z" />
<glyph unicode="&#xe1;" d="M123 289q0 126 84 213q83 86 239 86h320v114q0 166 -234 166q-168 0 -241 -88l-107 113q115 133 342 133q410 0 410 -328v-698h-170v88l-2 2q-27 -46 -105 -74q-79 -28 -176 -28q-168 0 -264 84t-96 217zM283 299q0 -76 57 -115q55 -43 164 -43q262 0 262 189v119h-279 q-100 0 -151 -39q-53 -41 -53 -111zM375 1229l303 250l121 -125l-348 -211z" />
<glyph unicode="&#xe2;" d="M123 289q0 126 84 213q83 86 239 86h320v114q0 166 -234 166q-168 0 -241 -88l-107 113q115 133 342 133q410 0 410 -328v-698h-170v88l-2 2q-27 -46 -105 -74q-79 -28 -176 -28q-168 0 -264 84t-96 217zM172 1188l307 313h109l293 -309l-82 -80l-273 217l-274 -219z M283 299q0 -76 57 -115q55 -43 164 -43q262 0 262 189v119h-279q-100 0 -151 -39q-53 -41 -53 -111z" />
<glyph unicode="&#xe3;" d="M123 289q0 126 84 213q83 86 239 86h320v114q0 166 -234 166q-168 0 -241 -88l-107 113q115 133 342 133q410 0 410 -328v-698h-170v88l-2 2q-27 -46 -105 -74q-79 -28 -176 -28q-168 0 -264 84t-96 217zM162 1221q42 89 100 135q59 47 121 47q57 0 147 -47 q94 -49 127 -49q63 0 125 92l107 -60q-86 -182 -219 -182q-54 0 -144 43t-129 43q-62 0 -129 -82zM283 299q0 -76 57 -115q55 -43 164 -43q262 0 262 189v119h-279q-100 0 -151 -39q-53 -41 -53 -111z" />
<glyph unicode="&#xe4;" d="M123 289q0 126 84 213q83 86 239 86h320v114q0 166 -234 166q-168 0 -241 -88l-107 113q115 133 342 133q410 0 410 -328v-698h-170v88l-2 2q-27 -46 -105 -74q-79 -28 -176 -28q-168 0 -264 84t-96 217zM281 1223v180h180v-180h-180zM283 299q0 -76 57 -115 q55 -43 164 -43q262 0 262 189v119h-279q-100 0 -151 -39q-53 -41 -53 -111zM649 1223v180h180v-180h-180z" />
<glyph unicode="&#xe5;" d="M123 289q0 126 84 213q83 86 239 86h320v114q0 166 -234 166q-168 0 -241 -88l-107 113q115 133 342 133q410 0 410 -328v-698h-170v88l-2 2q-27 -46 -105 -74q-79 -28 -176 -28q-168 0 -264 84t-96 217zM283 299q0 -76 57 -115q55 -43 164 -43q262 0 262 189v119h-279 q-100 0 -151 -39q-53 -41 -53 -111zM369 1319q0 84 59 143q58 58 143 58q84 0 144 -60q57 -57 57 -141t-57 -141q-60 -60 -144 -60q-83 0 -143 60q-59 59 -59 141zM459 1319q0 -47 33 -80t79 -33q47 0 80 33t33 80t-33 80t-80 33q-46 0 -79 -33t-33 -80z" />
<glyph unicode="&#xe6;" d="M20 291q0 132 76 217q77 86 234 86h147v121q0 76 -43 116q-42 39 -115 39q-89 0 -192 -71l-74 127q135 106 297 106q169 0 234 -121q77 121 231 121q291 0 291 -414v-157h-463q0 -324 191 -324q98 0 178 103l102 -97q-46 -72 -123 -114q-77 -41 -151 -41q-85 0 -160 37 q-78 38 -117 112q-76 -149 -268 -149q-129 0 -201 84q-74 83 -74 219zM174 301q0 -72 35 -113q34 -43 102 -43q166 0 166 187v121h-158q-145 0 -145 -152zM643 594h305q0 149 -35 217q-35 66 -114 66q-144 0 -156 -283z" />
<glyph unicode="&#xe7;" d="M193 502q0 260 133 393q131 131 323 131q188 0 332 -141l-109 -123q-92 102 -231 102q-133 0 -207 -92t-74 -266q0 -178 78 -268q79 -91 224 -91q57 0 124 31q60 28 103 74l110 -121q-140 -140 -350 -143l-20 -68q105 -6 155 -59t50 -113q0 -65 -54 -119 q-51 -51 -168 -51q-97 0 -178 37l35 88q73 -31 143 -31q43 0 70 21t27 53q0 39 -33 59q-38 23 -86 23h-29l-41 43l39 125q-161 24 -264 151q-102 126 -102 355z" />
<glyph unicode="&#xe8;" d="M158 504q0 146 39 250q36 104 102 164q60 54 135 83q70 27 148 27q172 0 290 -121q115 -121 115 -325v-131h-653v-17q0 -128 69 -209q67 -82 193 -82q118 0 229 97l109 -121q-137 -131 -346 -131q-82 0 -156 22q-68 20 -135 78q-65 53 -102 160t-37 256zM307 1354 l121 125l303 -250l-76 -86zM334 592h477q-6 137 -70 207q-63 69 -168 69q-102 0 -167 -71q-63 -72 -72 -205z" />
<glyph unicode="&#xe9;" d="M158 504q0 146 39 250q36 104 102 164q60 54 135 83q70 27 148 27q172 0 290 -121q115 -121 115 -325v-131h-653v-17q0 -128 69 -209q67 -82 193 -82q118 0 229 97l109 -121q-137 -131 -346 -131q-82 0 -156 22q-68 20 -135 78q-65 53 -102 160t-37 256zM334 592h477 q-6 137 -70 207q-63 69 -168 69q-102 0 -167 -71q-63 -72 -72 -205zM430 1229l303 250l121 -125l-348 -211z" />
<glyph unicode="&#xea;" d="M158 504q0 146 39 250q36 104 102 164q60 54 135 83q70 27 148 27q172 0 290 -121q115 -121 115 -325v-131h-653v-17q0 -128 69 -209q67 -82 193 -82q118 0 229 97l109 -121q-137 -131 -346 -131q-82 0 -156 22q-68 20 -135 78q-65 53 -102 160t-37 256zM227 1188 l308 313h108l293 -309l-82 -80l-272 217l-275 -219zM334 592h477q-6 137 -70 207q-63 69 -168 69q-102 0 -167 -71q-63 -72 -72 -205z" />
<glyph unicode="&#xeb;" d="M158 504q0 146 39 250q36 104 102 164q60 54 135 83q70 27 148 27q172 0 290 -121q115 -121 115 -325v-131h-653v-17q0 -128 69 -209q67 -82 193 -82q118 0 229 97l109 -121q-137 -131 -346 -131q-82 0 -156 22q-68 20 -135 78q-65 53 -102 160t-37 256zM322 1223v180 h180v-180h-180zM334 592h477q-6 137 -70 207q-63 69 -168 69q-102 0 -167 -71q-63 -72 -72 -205zM690 1223v180h180v-180h-180z" />
<glyph unicode="&#xec;" d="M238 866v148h454v-867h271v-147h-723v147h284v719h-286zM315 1354l121 125l303 -250l-75 -86z" />
<glyph unicode="&#xed;" d="M238 866v148h454v-867h271v-147h-723v147h284v719h-286zM438 1229l303 250l121 -125l-348 -211z" />
<glyph unicode="&#xee;" d="M207 1208l307 314h109l292 -310l-81 -79l-273 217l-274 -220zM238 866v148h454v-867h271v-147h-723v147h284v719h-286z" />
<glyph unicode="&#xef;" d="M240 866v148h454v-867h271v-147h-723v147h284v719h-286zM289 1223v180h180v-180h-180zM657 1223v180h181v-180h-181z" />
<glyph unicode="&#xf0;" d="M109 467q0 246 110 377t305 131q73 0 154 -35q80 -35 121 -100h8q-3 80 -27 174q-24 96 -63 143l-133 -94l-47 67l125 91q-78 90 -287 133l28 137q252 -21 383 -170l156 115l55 -70l-153 -111q75 -117 96 -262q23 -164 23 -372q0 -633 -449 -633q-200 0 -301 125 q-104 122 -104 354zM276 502q0 -180 60 -271q59 -90 186 -90q123 0 195 90q69 87 69 273q0 171 -69 246q-70 73 -185 73t-186 -80q-70 -82 -70 -241z" />
<glyph unicode="&#xf1;" d="M160 0v1018h168v-129h6q53 65 131 102q78 35 162 35q149 0 245 -90q93 -93 93 -262v-674h-168v590q0 135 -47 203q-46 67 -156 67q-125 0 -195 -67q-71 -68 -71 -185v-608h-168zM176 1249q40 84 100 135q60 48 121 48q50 0 148 -48q94 -49 127 -49q63 0 125 92l106 -59 q-86 -182 -219 -182q-53 0 -143 43t-129 43q-62 0 -129 -82z" />
<glyph unicode="&#xf2;" d="M143 504q0 191 52 295q55 112 149 168q96 57 225 57q236 0 344 -170q70 -107 70 -311q0 -264 -63 -369q-107 -186 -365 -186q-231 0 -336 153q-76 113 -76 363zM287 1354l121 125l303 -250l-76 -86zM311 502q0 -157 29 -226q58 -135 217 -135q185 0 240 181q16 59 16 215 q0 126 -27 190q-59 145 -221 145q-156 0 -217 -137q-34 -69 -37 -233z" />
<glyph unicode="&#xf3;" d="M143 504q0 191 52 295q55 112 149 168q96 57 225 57q236 0 344 -170q70 -107 70 -311q0 -264 -63 -369q-107 -186 -365 -186q-231 0 -336 153q-76 113 -76 363zM311 502q0 -157 29 -226q58 -135 217 -135q185 0 240 181q16 59 16 215q0 126 -27 190q-59 145 -221 145 q-156 0 -217 -137q-34 -69 -37 -233zM410 1229l303 250l121 -125l-349 -211z" />
<glyph unicode="&#xf4;" d="M143 504q0 191 52 295q55 112 149 168q96 57 225 57q236 0 344 -170q70 -107 70 -311q0 -264 -63 -369q-107 -186 -365 -186q-231 0 -336 153q-76 113 -76 363zM207 1188l307 313h109l292 -309l-81 -80l-273 217l-274 -219zM311 502q0 -157 29 -226q58 -135 217 -135 q185 0 240 181q16 59 16 215q0 126 -27 190q-59 145 -221 145q-156 0 -217 -137q-34 -69 -37 -233z" />
<glyph unicode="&#xf5;" d="M143 504q0 191 52 295q55 112 149 168q96 57 225 57q236 0 344 -170q70 -107 70 -311q0 -264 -63 -369q-107 -186 -365 -186q-231 0 -336 153q-76 113 -76 363zM197 1221q42 89 100 135q59 47 121 47q57 0 147 -47q94 -49 127 -49q63 0 125 92l107 -60 q-86 -182 -219 -182q-54 0 -144 43t-129 43q-62 0 -129 -82zM311 502q0 -157 29 -226q58 -135 217 -135q185 0 240 181q16 59 16 215q0 126 -27 190q-59 145 -221 145q-156 0 -217 -137q-34 -69 -37 -233z" />
<glyph unicode="&#xf6;" d="M143 504q0 191 52 295q55 112 149 168q96 57 225 57q236 0 344 -170q70 -107 70 -311q0 -264 -63 -369q-107 -186 -365 -186q-231 0 -336 153q-76 113 -76 363zM283 1223v180h180v-180h-180zM311 502q0 -157 29 -226q58 -135 217 -135q185 0 240 181q16 59 16 215 q0 126 -27 190q-59 145 -221 145q-156 0 -217 -137q-34 -69 -37 -233zM651 1223v180h180v-180h-180z" />
<glyph unicode="&#xf7;" d="M100 537v129h924v-129h-924zM446 238q0 46 35 81q33 33 82 33t82 -33q35 -35 35 -81q0 -47 -35 -82t-82 -35t-82 35t-35 82zM446 969q0 47 35 82q34 34 82 34t82 -34q35 -35 35 -82t-35 -82t-82 -35t-82 35t-35 82z" />
<glyph unicode="&#xf8;" d="M143 504q0 191 52 295q55 112 149 168q96 57 225 57q146 0 250 -72l86 121l78 -55l-94 -133l24 -31q70 -107 70 -311q0 -264 -63 -369q-107 -186 -365 -186q-151 0 -252 67l-76 -106l-75 57l81 115q-8 8 -14 20q-76 113 -76 363zM311 502q0 -157 29 -226v-2l385 543 q-64 55 -160 55q-156 0 -217 -137q-34 -69 -37 -233zM399 193q58 -52 158 -52q185 0 240 181q16 59 16 215q0 126 -27 190l-4 8z" />
<glyph unicode="&#xf9;" d="M160 342v674h168v-610q0 -141 49 -199q51 -60 184 -60q101 0 170 72q66 72 66 187v610h168v-1016h-168v115h-6q-100 -127 -279 -127q-163 0 -258 86q-94 85 -94 268zM289 1354l121 125l303 -250l-76 -86z" />
<glyph unicode="&#xfa;" d="M160 342v674h168v-610q0 -141 49 -199q51 -60 184 -60q101 0 170 72q66 72 66 187v610h168v-1016h-168v115h-6q-100 -127 -279 -127q-163 0 -258 86q-94 85 -94 268zM412 1229l303 250l121 -125l-349 -211z" />
<glyph unicode="&#xfb;" d="M160 342v674h168v-610q0 -141 49 -199q51 -60 184 -60q101 0 170 72q66 72 66 187v610h168v-1016h-168v115h-6q-100 -127 -279 -127q-163 0 -258 86q-94 85 -94 268zM207 1208l307 314h109l292 -310l-81 -79l-273 217l-274 -220z" />
<glyph unicode="&#xfc;" d="M160 342v674h168v-610q0 -141 49 -199q51 -60 184 -60q101 0 170 72q66 72 66 187v610h168v-1016h-168v115h-6q-100 -127 -279 -127q-163 0 -258 86q-94 85 -94 268zM281 1223v180h180v-180h-180zM649 1223v180h180v-180h-180z" />
<glyph unicode="&#xfd;" d="M115 1016h186l162 -461q82 -233 106 -317h9l100 315l158 463h176l-398 -1122q-65 -181 -149 -238q-86 -59 -217 -59h-74v147h72q80 0 129 37q51 42 80 137l32 102zM412 1229l303 250l121 -125l-349 -211z" />
<glyph unicode="&#xfe;" d="M176 -406v1831h168v-522l6 -2q107 125 277 125q362 0 362 -510q0 -528 -395 -528q-138 0 -246 102h-4v-496h-168zM344 506q0 -350 234 -350q74 0 124 30q51 28 72 86q23 60 31 109q8 47 8 125q0 72 -6 125q-7 41 -31 108q-19 54 -71 90q-54 31 -127 31q-234 0 -234 -354z " />
<glyph unicode="&#xff;" d="M115 1016h186l162 -461q82 -233 106 -317h9l100 315l158 463h176l-398 -1122q-65 -181 -149 -238q-86 -59 -217 -59h-74v147h72q80 0 129 37q51 42 80 137l32 102zM309 1223v180h180v-180h-180zM678 1223v180h180v-180h-180z" />
<glyph unicode="&#x152;" d="M55 516v393q0 229 123 379q124 148 383 148q43 0 115 -11h395v-165h-399v-441h364v-157h-364v-496h440v-166h-424q-59 -12 -127 -12q-269 0 -387 145q-119 143 -119 383zM229 526q0 -324 267 -364v1098q-138 -6 -203 -109q-64 -104 -64 -246v-379z" />
<glyph unicode="&#x153;" d="M29 504q0 258 73 389t238 131q156 0 229 -135q82 137 248 137q131 0 211 -108q78 -110 78 -302v-157h-459q0 -166 43 -242q41 -80 144 -80q91 0 157 72l96 -109q-90 -112 -260 -112q-79 0 -149 37q-69 34 -103 110q-83 -147 -239 -147q-160 0 -234 129q-73 125 -73 387z M186 502q0 -367 152 -367q75 0 113 86q36 82 36 283q0 212 -36 291q-38 84 -113 84q-80 0 -115 -93q-37 -90 -37 -284zM647 592h305q0 146 -34 213q-37 67 -119 67q-140 0 -152 -280z" />
<glyph unicode="&#x178;" d="M49 1425h191l198 -395l127 -272l133 284l193 383h186l-428 -860v-565h-172v565zM289 1546v180h180v-180h-180zM657 1546v180h181v-180h-181z" />
<glyph unicode="&#x2c6;" d="M209 1208l307 314h109l293 -310l-82 -79l-273 217l-274 -220z" />
<glyph unicode="&#x2dc;" d="M199 1249q40 84 100 135q60 48 121 48q49 0 147 -48q94 -49 127 -49q63 0 125 92l107 -59q-86 -182 -219 -182q-54 0 -144 43t-129 43q-62 0 -129 -82z" />
<glyph unicode="&#x2000;" horiz-adv-x="955" />
<glyph unicode="&#x2001;" horiz-adv-x="1911" />
<glyph unicode="&#x2002;" horiz-adv-x="955" />
<glyph unicode="&#x2003;" horiz-adv-x="1911" />
<glyph unicode="&#x2004;" horiz-adv-x="637" />
<glyph unicode="&#x2005;" horiz-adv-x="477" />
<glyph unicode="&#x2006;" horiz-adv-x="318" />
<glyph unicode="&#x2007;" horiz-adv-x="318" />
<glyph unicode="&#x2008;" horiz-adv-x="238" />
<glyph unicode="&#x2009;" horiz-adv-x="382" />
<glyph unicode="&#x200a;" horiz-adv-x="106" />
<glyph unicode="&#x2010;" d="M268 471v154h590v-154h-590z" />
<glyph unicode="&#x2011;" d="M268 471v154h590v-154h-590z" />
<glyph unicode="&#x2012;" d="M268 471v154h590v-154h-590z" />
<glyph unicode="&#x2013;" d="M92 469v158h942v-158h-942z" />
<glyph unicode="&#x2014;" d="M41 471v158h1046v-158h-1046z" />
<glyph unicode="&#x2018;" d="M453 1014v223l114 272h105l-66 -268h58v-227h-211z" />
<glyph unicode="&#x2019;" d="M453 1014l65 268h-57v227h211v-223l-115 -272h-104z" />
<glyph unicode="&#x201a;" d="M440 -268l66 268h-57v227h210v-223l-114 -272h-105z" />
<glyph unicode="&#x201c;" d="M307 1014v223l115 272h104l-65 -268h57v-227h-211zM600 1014v223l115 272h104l-65 -268h57v-227h-211z" />
<glyph unicode="&#x201d;" d="M307 1014l66 268h-58v227h211v-223l-114 -272h-105zM600 1014l66 268h-58v227h211v-223l-114 -272h-105z" />
<glyph unicode="&#x201e;" d="M307 -268l66 268h-58v227h211v-223l-114 -272h-105zM600 -268l66 268h-58v227h211v-223l-114 -272h-105z" />
<glyph unicode="&#x2022;" d="M293 547q0 109 78 190q78 78 190 78t193 -78q77 -80 77 -190q0 -112 -77 -189q-79 -79 -193 -79t-190 79q-78 78 -78 189z" />
<glyph unicode="&#x2026;" d="M80 0v236h223v-236h-223zM459 0v236h223v-236h-223zM829 0v236h224v-236h-224z" />
<glyph unicode="&#x202f;" horiz-adv-x="382" />
<glyph unicode="&#x2039;" d="M352 475l260 381h160l-252 -381l252 -381h-160z" />
<glyph unicode="&#x203a;" d="M352 94l252 381l-252 381h160l260 -381l-260 -381h-160z" />
<glyph unicode="&#x205f;" horiz-adv-x="477" />
<glyph unicode="&#x20ac;" d="M82 549v110h698v-110h-430v-60q0 -153 78 -249q77 -95 205 -95q179 0 278 156l131 -102q-150 -211 -411 -211q-218 0 -338 141q-121 142 -121 373v47h-90zM82 774v111h90v41q0 218 125 364t334 146q261 0 381 -209l-148 -92q-83 139 -231 139q-140 0 -211 -103 q-72 -107 -72 -253v-33h430v-111h-698z" />
<glyph unicode="&#x2122;" d="M37 1317v108h448v-108h-168v-518h-114v518h-166zM522 797v626h109l153 -315l154 315h111v-626h-115v387l-100 -217h-99l-102 213v-383h-111z" />
<glyph unicode="&#x25fc;" horiz-adv-x="1013" d="M0 0v1014h1014v-1014h-1014z" />
</font>
</defs>
</svg>
